<svg width="46" height="46" viewBox="0 0 46 46" fill="none" xmlns="http://www.w3.org/2000/svg">
<path d="M33.5746 24.0647C33.5566 21.001 34.9447 18.692 37.7479 16.9895C36.1801 14.7434 33.8082 13.508 30.6816 13.2699C27.7213 13.0363 24.4824 14.9949 23.2965 14.9949C22.0432 14.9949 19.1771 13.3508 16.9221 13.3508C12.2682 13.4227 7.32227 17.0613 7.32227 24.4645C7.32227 26.6521 7.72207 28.9117 8.52168 31.2387C9.59082 34.3023 13.4451 41.8088 17.4656 41.6875C19.568 41.6381 21.0549 40.1961 23.7906 40.1961C26.4455 40.1961 27.8201 41.6875 30.165 41.6875C34.2215 41.6291 37.7074 34.8055 38.7227 31.7328C33.2826 29.1678 33.5746 24.2219 33.5746 24.0647ZM28.8533 10.3635C31.1309 7.65918 30.9242 5.19746 30.8568 4.3125C28.8443 4.4293 26.5174 5.68262 25.1922 7.22344C23.7322 8.87656 22.8742 10.9205 23.0584 13.225C25.2326 13.3912 27.2182 12.2727 28.8533 10.3635Z" fill="white"/>
</svg>
