<svg width="16" height="16" viewBox="0 0 16 16" fill="none" xmlns="http://www.w3.org/2000/svg">
<g clip-path="url(#clip0_120_899)">
<path d="M1.3335 1.33398H2.20427C2.36828 1.33398 2.45029 1.33398 2.51628 1.36414C2.57444 1.39072 2.62373 1.43347 2.65826 1.48728C2.69745 1.54835 2.70905 1.62953 2.73225 1.79189L3.04778 4.00065M3.04778 4.00065L3.74904 9.15492C3.83803 9.809 3.88253 10.136 4.0389 10.3822C4.17668 10.5991 4.37422 10.7716 4.60773 10.8789C4.87274 11.0007 5.20279 11.0007 5.8629 11.0007H11.5682C12.1965 11.0007 12.5107 11.0007 12.7675 10.8876C12.9939 10.7879 13.1881 10.6272 13.3283 10.4235C13.4875 10.1924 13.5462 9.88376 13.6638 9.26649L14.5462 4.63378C14.5876 4.41652 14.6083 4.3079 14.5783 4.22298C14.552 4.1485 14.5001 4.08577 14.4319 4.046C14.3541 4.00065 14.2435 4.00065 14.0223 4.00065H3.04778ZM6.66683 14.0007C6.66683 14.3688 6.36835 14.6673 6.00016 14.6673C5.63197 14.6673 5.3335 14.3688 5.3335 14.0007C5.3335 13.6325 5.63197 13.334 6.00016 13.334C6.36835 13.334 6.66683 13.6325 6.66683 14.0007ZM12.0002 14.0007C12.0002 14.3688 11.7017 14.6673 11.3335 14.6673C10.9653 14.6673 10.6668 14.3688 10.6668 14.0007C10.6668 13.6325 10.9653 13.334 11.3335 13.334C11.7017 13.334 12.0002 13.6325 12.0002 14.0007Z" stroke="#74C247" stroke-width="1.33333" stroke-linecap="round" stroke-linejoin="round"/>
</g>
<defs>
<clipPath id="clip0_120_899">
<rect width="16" height="16" fill="white"/>
</clipPath>
</defs>
</svg>
