<svg width="20" height="20" viewBox="0 0 20 20" fill="none" xmlns="http://www.w3.org/2000/svg">
<path fill-rule="evenodd" clip-rule="evenodd" d="M18.283 7.12578L17.408 6.25078C16.991 5.82911 16.4259 5.58691 15.833 5.57578H12.4997V5.09245C12.4997 3.8268 11.4737 2.80078 10.208 2.80078H3.33301C2.98783 2.80078 2.70801 3.0806 2.70801 3.42578C2.70801 3.77096 2.98783 4.05078 3.33301 4.05078H10.183C10.7583 4.05078 11.2247 4.51715 11.2247 5.09245V10.3674C11.2247 10.7126 11.5045 10.9924 11.8497 10.9924C12.1949 10.9924 12.4747 10.7126 12.4747 10.3674V6.82578H15.808C16.0842 6.82469 16.3489 6.936 16.5413 7.13411L17.4163 7.96745C17.5357 8.09117 17.6217 8.24313 17.6663 8.40911H14.1663C13.8212 8.40911 13.5413 8.68894 13.5413 9.03411C13.5413 9.37929 13.8212 9.65911 14.1663 9.65911H17.708V13.2008C17.7194 13.4842 17.6146 13.76 17.418 13.9644C17.2214 14.1689 16.95 14.2843 16.6663 14.2841H15.7413C15.5363 13.3226 14.687 12.6354 13.7038 12.6354C12.7207 12.6354 11.8714 13.3226 11.6663 14.2841H7.21634C6.99205 13.2903 6.07694 12.6082 5.06045 12.6772C4.04396 12.7462 3.2294 13.5456 3.14143 14.5606C3.05346 15.5757 3.71834 16.5034 4.7078 16.7462C5.69726 16.989 6.71608 16.4745 7.10801 15.5341H11.783C12.1078 16.3076 12.8649 16.8108 13.7038 16.8108C14.5428 16.8108 15.2999 16.3076 15.6247 15.5341H16.6663C17.932 15.5341 18.958 14.5081 18.958 13.2424V8.75078C18.9591 8.14069 18.7161 7.55552 18.283 7.12578ZM5.18328 15.4004C4.90351 15.414 4.64374 15.2556 4.52786 15.0005C4.41199 14.7455 4.46347 14.4456 4.65777 14.2439C4.85206 14.0421 5.1498 13.9793 5.409 14.0855C5.6682 14.1917 5.83636 14.4453 5.83328 14.7254C5.83353 15.0886 5.54627 15.3869 5.18328 15.4004ZM13.0677 14.9774C13.1729 15.2338 13.4226 15.4012 13.6997 15.4012C14.0739 15.4012 14.3785 15.1003 14.3831 14.7262C14.3865 14.4491 14.2221 14.1974 13.9671 14.089C13.712 13.9806 13.4167 14.037 13.2196 14.2317C13.0224 14.4265 12.9624 14.721 13.0677 14.9774Z" fill="#74C247"/>
<path d="M8.95768 7.5C8.95319 7.1567 8.67598 6.87949 8.33268 6.875H1.66602C1.32084 6.875 1.04102 7.15482 1.04102 7.5C1.04102 7.84518 1.32084 8.125 1.66602 8.125H8.33268C8.67598 8.12051 8.95319 7.8433 8.95768 7.5Z" fill="#74C247"/>
<path d="M8.33268 9.375H4.16602C3.82084 9.375 3.54102 9.65482 3.54102 10C3.54102 10.3452 3.82084 10.625 4.16602 10.625H8.33268C8.67786 10.625 8.95768 10.3452 8.95768 10C8.95768 9.65482 8.67786 9.375 8.33268 9.375Z" fill="#74C247"/>
</svg>
