<svg width="48" height="48" viewBox="0 0 48 48" fill="none" xmlns="http://www.w3.org/2000/svg">
<path fill-rule="evenodd" clip-rule="evenodd" d="M43.88 17.0988L41.78 14.9987C40.7793 13.9867 39.423 13.4055 38 13.3787H30V12.2188C30 9.18118 27.5376 6.71875 24.5 6.71875H8C7.17157 6.71875 6.5 7.39032 6.5 8.21875C6.5 9.04718 7.17157 9.71875 8 9.71875H24.44C25.8207 9.71875 26.94 10.838 26.94 12.2188V24.8787C26.94 25.7072 27.6116 26.3787 28.44 26.3787C29.2684 26.3787 29.94 25.7072 29.94 24.8787V16.3787H37.94C38.6028 16.3761 39.2382 16.6433 39.7 17.1187L41.8 19.1187C42.0864 19.4157 42.2928 19.7804 42.4 20.1788H34C33.1716 20.1788 32.5 20.8503 32.5 21.6788C32.5 22.5072 33.1716 23.1787 34 23.1787H42.5V31.6787C42.5272 32.3589 42.2759 33.0208 41.8041 33.5115C41.3323 34.0022 40.6807 34.2793 40 34.2787H37.78C37.2878 31.9712 35.2495 30.3218 32.89 30.3218C30.5305 30.3218 28.4922 31.9712 28 34.2787H17.32C16.7817 31.8936 14.5854 30.2565 12.1459 30.4221C9.70629 30.5876 7.75134 32.5064 7.54021 34.9424C7.32909 37.3785 8.92479 39.605 11.2995 40.1878C13.6742 40.7705 16.1194 39.5358 17.06 37.2787H28.28C29.0596 39.1351 30.8766 40.3428 32.89 40.3428C34.9034 40.3428 36.7204 39.1351 37.5 37.2787H40C43.0376 37.2787 45.5 34.8163 45.5 31.7787V20.9987C45.5027 19.5345 44.9193 18.1301 43.88 17.0988ZM12.4414 36.959C11.7699 36.9917 11.1465 36.6114 10.8684 35.9994C10.5903 35.3874 10.7139 34.6676 11.1802 34.1834C11.6465 33.6991 12.3611 33.5485 12.9831 33.8033C13.6052 34.0581 14.0088 34.6668 14.0014 35.339C14.002 36.2108 13.3126 36.9267 12.4414 36.959ZM31.3621 35.9438C31.6148 36.5591 32.214 36.9609 32.8791 36.9609C33.7771 36.961 34.5082 36.2389 34.5191 35.3409C34.5272 34.6759 34.1328 34.0717 33.5207 33.8116C32.9086 33.5514 32.1999 33.6868 31.7267 34.1542C31.2535 34.6216 31.1095 35.3285 31.3621 35.9438Z" fill="#74C247"/>
<path d="M21.5 18C21.4892 17.1761 20.8239 16.5108 20 16.5H4C3.17157 16.5 2.5 17.1716 2.5 18C2.5 18.8284 3.17157 19.5 4 19.5H20C20.8239 19.4892 21.4892 18.8239 21.5 18Z" fill="#74C247"/>
<path d="M20 22.5H10C9.17157 22.5 8.5 23.1716 8.5 24C8.5 24.8284 9.17157 25.5 10 25.5H20C20.8284 25.5 21.5 24.8284 21.5 24C21.5 23.1716 20.8284 22.5 20 22.5Z" fill="#74C247"/>
</svg>
