<svg width="48" height="48" viewBox="0 0 48 48" fill="none" xmlns="http://www.w3.org/2000/svg">
<path d="M36.08 27.1C35.24 27.92 34.76 29.1 34.88 30.36C35.06 32.52 37.04 34.1 39.2 34.1H43V36.48C43 40.62 39.62 44 35.48 44H15.26C15.88 43.48 16.42 42.84 16.84 42.12C17.58 40.92 18 39.5 18 38C18 33.58 14.42 30 10 30C8.12 30 6.38 30.66 5 31.76V23.02C5 18.88 8.37999 15.5 12.52 15.5H35.48C39.62 15.5 43 18.88 43 23.02V25.9H38.96C37.84 25.9 36.82 26.34 36.08 27.1Z" stroke="#74C247" stroke-width="3" stroke-linecap="round" stroke-linejoin="round"/>
<path d="M5 24.8186V15.6787C5 13.2987 6.45999 11.1787 8.67999 10.3387L24.56 4.33866C27.04 3.39866 29.7 5.23871 29.7 7.89871V15.4987" stroke="#74C247" stroke-width="3" stroke-linecap="round" stroke-linejoin="round"/>
<path d="M45.1176 27.9384V32.0585C45.1176 33.1585 44.2376 34.0584 43.1176 34.0984H39.1976C37.0376 34.0984 35.0576 32.5184 34.8776 30.3584C34.7576 29.0984 35.2376 27.9184 36.0776 27.0984C36.8176 26.3384 37.8376 25.8984 38.9576 25.8984H43.1176C44.2376 25.9384 45.1176 26.8384 45.1176 27.9384Z" stroke="#74C247" stroke-width="3" stroke-linecap="round" stroke-linejoin="round"/>
<path d="M14 24H28" stroke="#74C247" stroke-width="3" stroke-linecap="round" stroke-linejoin="round"/>
<path d="M18 38C18 39.5 17.58 40.92 16.84 42.12C16.42 42.84 15.88 43.48 15.26 44C13.86 45.26 12.02 46 10 46C7.08 46 4.54 44.44 3.16 42.12C2.42 40.92 2 39.5 2 38C2 35.48 3.16 33.22 5 31.76C6.38 30.66 8.12 30 10 30C14.42 30 18 33.58 18 38Z" stroke="#74C247" stroke-width="3" stroke-miterlimit="10" stroke-linecap="round" stroke-linejoin="round"/>
<path d="M6.88281 37.999L8.86279 39.979L13.1228 36.0391" stroke="#74C247" stroke-width="3" stroke-linecap="round" stroke-linejoin="round"/>
</svg>
