<svg width="48" height="48" viewBox="0 0 48 48" fill="none" xmlns="http://www.w3.org/2000/svg">
<path d="M36 37.7195H34.48C32.88 37.7195 31.36 38.3395 30.24 39.4595L26.82 42.8396C25.26 44.3796 22.72 44.3796 21.16 42.8396L17.74 39.4595C16.62 38.3395 15.08 37.7195 13.5 37.7195H12C8.68 37.7195 6 35.0595 6 31.7795V9.95947C6 6.67947 8.68 4.01953 12 4.01953H36C39.32 4.01953 42 6.67947 42 9.95947V31.7795C42 35.0395 39.32 37.7195 36 37.7195Z" stroke="#74C247" stroke-width="3" stroke-miterlimit="10" stroke-linecap="round" stroke-linejoin="round"/>
<path d="M14 18.3215C14 16.4615 15.52 14.9414 17.38 14.9414C19.24 14.9414 20.76 16.4615 20.76 18.3215C20.76 22.0815 15.42 22.4815 14.24 26.0615C14 26.8015 14.62 27.5415 15.4 27.5415H20.76" stroke="#74C247" stroke-width="3" stroke-linecap="round" stroke-linejoin="round"/>
<path d="M32.0795 27.5217V16.1018C32.0795 15.5818 31.7395 15.1217 31.2395 14.9817C30.7395 14.8417 30.1995 15.0417 29.9195 15.4817C28.4795 17.8017 26.9195 20.4417 25.5595 22.7617C25.3395 23.1417 25.3395 23.6417 25.5595 24.0217C25.7795 24.4017 26.1995 24.6416 26.6595 24.6416H33.9995" stroke="#74C247" stroke-width="3" stroke-linecap="round" stroke-linejoin="round"/>
</svg>
