<svg width="28" height="40" viewBox="0 0 28 40" fill="none" xmlns="http://www.w3.org/2000/svg">
<path fill-rule="evenodd" clip-rule="evenodd" d="M7.06324 1.87354C11.433 -0.665451 16.8041 -0.621074 21.1328 1.98979C25.4189 4.65383 28.0239 9.40835 27.9997 14.5229C27.8999 19.6039 25.1066 24.38 21.6149 28.0722C19.5997 30.2128 17.3452 32.1057 14.8977 33.7121C14.6456 33.8578 14.3695 33.9554 14.083 34C13.8072 33.9883 13.5386 33.9068 13.3015 33.7629C9.56485 31.3491 6.28667 28.2681 3.62466 24.6679C1.39717 21.6627 0.131669 18.032 2.32721e-06 14.2688C-0.00289167 9.14449 2.69353 4.41254 7.06324 1.87354ZM9.58887 16.3901C10.3239 18.2022 12.0589 19.3842 13.9838 19.3842C15.2448 19.3933 16.4569 18.8882 17.3502 17.9815C18.2434 17.0748 18.7435 15.8418 18.739 14.5573C18.7458 12.5966 17.5915 10.8251 15.8151 10.0701C14.0387 9.31499 11.9906 9.72522 10.6272 11.1092C9.26373 12.4932 8.85383 14.578 9.58887 16.3901Z" fill="#27AE60"/>
<ellipse opacity="0.4" cx="13.998" cy="38.0005" rx="10" ry="2" fill="#27AE60"/>
</svg>
