<svg width="24" height="24" viewBox="0 0 24 24" fill="none" xmlns="http://www.w3.org/2000/svg">
<path fill-rule="evenodd" clip-rule="evenodd" d="M13.2238 2.05856C13.0529 2.14763 11.5706 3.62982 11.4818 3.80051C11.4403 3.88029 11.4063 3.9997 11.4063 4.06591C11.4063 4.13212 11.4403 4.25153 11.4818 4.33131C11.5746 4.50977 13.0588 5.98868 13.2316 6.07502C13.7091 6.31345 14.2407 5.78152 14.0013 5.30494C13.9668 5.23615 13.8571 5.09595 13.7577 4.99335L13.5769 4.80683L13.713 4.83251C13.9649 4.88004 14.7448 5.12608 15.0801 5.2639C17.2106 6.13936 18.9246 7.97207 19.6538 10.1545C20.6366 13.0959 19.8917 16.2643 17.7028 18.4532C14.5291 21.6269 9.47659 21.6259 6.28207 18.4508C4.94853 17.1254 4.13127 15.4066 3.94249 13.5304C3.59118 10.0388 5.62284 6.62399 8.84113 5.29701C9.40577 5.06417 9.45486 5.03603 9.55949 4.88488C9.80644 4.52826 9.52377 3.98832 9.08987 3.98789C8.77746 3.98758 7.59862 4.53819 6.87231 5.0236C5.49351 5.94521 4.41993 7.17018 3.68667 8.65854C3.24828 9.54838 2.9821 10.3984 2.82138 11.4221C2.7255 12.0327 2.72397 13.4471 2.81856 14.054C2.97686 15.0697 3.24898 15.9391 3.68663 16.8276C5.30081 20.1043 8.69229 22.1369 12.3053 21.9928C13.7023 21.9372 14.8676 21.6456 16.0771 21.0492C17.0165 20.5861 17.7617 20.0553 18.4989 19.3242C20.0293 17.8068 20.9731 15.8506 21.1982 13.7297C21.4573 11.288 20.7661 8.91667 19.2233 6.9543C18.8954 6.53718 18.1947 5.8355 17.7832 5.5121C16.6567 4.62687 15.3343 3.99551 13.9813 3.69705C13.7315 3.64198 13.4897 3.59687 13.4439 3.59687C13.3981 3.59687 13.3606 3.58319 13.3606 3.5665C13.3606 3.54981 13.4851 3.41348 13.6372 3.26359C14.0647 2.84235 14.1456 2.61987 13.9855 2.30601C13.8481 2.03675 13.4894 1.92019 13.2238 2.05856ZM11.25 6.76317C9.87461 6.95231 8.73102 7.52008 7.75035 8.50079C6.86555 9.38555 6.35063 10.3349 6.08535 11.5705C5.95754 12.1657 5.95754 13.3204 6.08535 13.9156C6.34973 15.1471 6.86845 16.1035 7.75035 16.9853C8.63221 17.8672 9.58854 18.3859 10.82 18.6503C11.4152 18.7781 12.57 18.7781 13.1652 18.6503C14.4006 18.3851 15.3502 17.87 16.2349 16.9853C17.1141 16.1061 17.6363 15.1435 17.8999 13.9156C17.9743 13.5692 17.988 13.3865 17.988 12.7431C17.988 12.0996 17.9743 11.9169 17.8999 11.5705C17.6357 10.3401 17.1178 9.38473 16.2349 8.4995C15.355 7.61729 14.3986 7.0974 13.1847 6.84158C12.74 6.74785 11.6753 6.7047 11.25 6.76317ZM12.2702 8.8059C12.4355 8.91632 12.5397 9.11753 12.5397 9.32661C12.5398 9.481 12.5456 9.48823 12.7059 9.53556C12.9643 9.61186 13.3128 9.81081 13.4383 9.95374C13.5902 10.1268 13.6225 10.315 13.5382 10.5359C13.4571 10.7482 13.2948 10.8707 13.0598 10.8972C12.9095 10.9141 12.8397 10.8946 12.5877 10.765C12.3372 10.6361 12.2557 10.6131 12.0544 10.6145C11.736 10.6168 11.5444 10.6884 11.4195 10.8522C11.3027 11.0054 11.2533 11.3133 11.3243 11.4459C11.392 11.5725 11.7781 11.7796 12.4287 12.0381C13.1017 12.3056 13.3332 12.4407 13.5608 12.6987C14.4025 13.6531 14.0455 15.2167 12.8575 15.7792L12.5419 15.9286L12.5408 16.124C12.5379 16.6246 12.0986 16.9171 11.6793 16.6976C11.5115 16.6098 11.3672 16.3449 11.3672 16.1247V15.966L11.1353 15.9219C10.8719 15.8719 10.3776 15.6466 10.1962 15.4939C9.94789 15.285 9.88692 14.9728 10.0481 14.7361C10.2799 14.3955 10.5218 14.3667 11.008 14.622C11.317 14.7842 11.3519 14.7933 11.7232 14.8082C12.2064 14.8276 12.3938 14.7669 12.6104 14.5208C12.8577 14.2399 12.9157 13.9145 12.7716 13.6168C12.6742 13.4157 12.56 13.3415 12.061 13.1555C10.6792 12.6403 10.1821 12.1836 10.1269 11.3784C10.0884 10.8158 10.2576 10.368 10.6607 9.9652C10.8396 9.78649 10.9861 9.6803 11.1425 9.616L11.3672 9.5236L11.3679 9.34513C11.3697 8.85581 11.8844 8.54816 12.2702 8.8059Z" fill="black"/>
<line x1="3.8092" y1="3.18701" x2="21.4065" y2="20.7843" stroke="#EB5757" stroke-width="1.5" stroke-linecap="round"/>
</svg>
