<svg width="20" height="20" viewBox="0 0 20 20" fill="none" xmlns="http://www.w3.org/2000/svg">
<path fill-rule="evenodd" clip-rule="evenodd" d="M9.34156 1.67521C6.93749 1.89327 4.75858 3.09154 3.33231 4.98001C2.87383 5.58705 2.42558 6.41153 2.156 7.14354C1.9919 7.58918 1.79968 8.36517 1.72773 8.87269C1.6462 9.4476 1.64607 10.6028 1.7275 11.1374C2.00295 12.946 2.7907 14.5459 4.02739 15.8084C4.71717 16.5125 5.37885 17.0023 6.2064 17.4212C8.28246 18.4722 10.6954 18.6214 12.8497 17.8319C13.6043 17.5554 14.5543 17.0229 15.1854 16.5228C15.5226 16.2556 16.185 15.6 16.4618 15.2595C18.0678 13.2841 18.6819 10.6674 18.1252 8.1721C17.9962 7.59429 17.9445 7.44899 17.8248 7.32934C17.721 7.22555 17.7042 7.22001 17.5359 7.23399C17.3323 7.25087 17.2185 7.33331 17.1619 7.50481C17.1329 7.59273 17.1459 7.68247 17.2412 8.05101C17.4172 8.73182 17.4877 9.28963 17.4872 9.9969C17.4862 11.1796 17.265 12.172 16.7698 13.2143C16.2064 14.4004 15.3425 15.4228 14.2783 16.1628C13.0117 17.0436 11.5633 17.4969 10.0096 17.4989C9.37652 17.4997 9.08426 17.4722 8.51062 17.3576C6.23181 16.9027 4.26126 15.3854 3.25202 13.3085C2.5337 11.8304 2.31372 10.223 2.61122 8.62674C2.83753 7.41269 3.37415 6.24456 4.14389 5.29055C4.40555 4.96626 4.97994 4.38757 5.28103 4.14484C5.90299 3.64354 6.8425 3.13348 7.60373 2.88391C8.51757 2.58428 9.21526 2.4846 10.2152 2.51077C10.9159 2.52908 11.3634 2.59272 12.0072 2.76562C12.3215 2.85002 12.3919 2.85914 12.4868 2.82783C12.6629 2.7697 12.7631 2.62593 12.7631 2.43126C12.7631 2.28994 12.7486 2.25308 12.6569 2.16139C12.5882 2.09276 12.4816 2.03505 12.3554 1.99826C12.041 1.90657 11.4919 1.78848 11.1288 1.73442C10.8044 1.68616 9.64457 1.64771 9.34156 1.67521ZM15.1548 2.59631C15.0849 2.64805 14.4756 3.24561 13.8007 3.92417C12.7675 4.96303 12.5681 5.17852 12.5382 5.28827C12.5176 5.3641 12.5027 5.72472 12.5026 6.15065L12.5024 6.88265L11.0713 8.3176C9.82197 9.57038 9.63744 9.76798 9.61769 9.87447C9.58729 10.0384 9.61977 10.1498 9.73008 10.2601C9.84031 10.3703 9.95163 10.4028 10.1157 10.3727C10.2223 10.3531 10.418 10.1704 11.6722 8.91906L13.1069 7.4878L13.8392 7.48761C14.2653 7.48751 14.626 7.47258 14.7019 7.45196C14.8116 7.42204 15.0271 7.22262 16.066 6.18943C16.7446 5.51458 17.3421 4.90523 17.3939 4.83533C17.5015 4.68997 17.5182 4.51257 17.4388 4.35893C17.3532 4.19352 17.2986 4.18163 16.543 4.16407L15.8424 4.14777L15.8261 3.44718C15.8085 2.69159 15.7966 2.63694 15.6312 2.5514C15.4776 2.47196 15.3002 2.48868 15.1548 2.59631ZM15.0706 4.77681C15.162 4.9371 15.29 4.97845 15.6955 4.97858L16.07 4.97871L15.2396 5.80964L14.4091 6.64058H13.8793H13.3496V6.11129V5.582L14.1724 4.75856L14.9952 3.93509L15.0115 4.31843C15.0211 4.54578 15.0452 4.73226 15.0706 4.77681ZM9.16322 4.21581C6.99539 4.55265 5.2343 6.01982 4.52354 8.08112C4.02094 9.53871 4.11935 11.1336 4.79752 12.5223C6.06491 15.1175 9.06452 16.391 11.8181 15.503C12.2343 15.3688 12.8736 15.0569 13.2518 14.8036C14.528 13.949 15.4216 12.6097 15.7309 11.0885C15.801 10.7433 15.8535 9.74569 15.8128 9.52919C15.764 9.26848 15.4872 9.09884 15.2652 9.1934C15.2063 9.21849 15.1225 9.27763 15.0789 9.32485C15.0019 9.4084 14.9997 9.42593 14.9938 9.98891C14.9892 10.4254 14.9713 10.6483 14.9205 10.8981C14.511 12.9134 13.0321 14.4134 11.0169 14.8575C10.7446 14.9175 10.589 14.9289 10.0259 14.93C9.4547 14.9311 9.31174 14.921 9.03985 14.8602C8.01679 14.6313 7.22108 14.1997 6.50416 13.4849C5.78285 12.7657 5.31935 11.8987 5.11582 10.888C5.02742 10.449 5.03638 9.41117 5.13228 8.97566C5.23489 8.50985 5.37546 8.11455 5.58228 7.71023C6.29001 6.32658 7.54208 5.3846 9.09212 5.06962C9.34257 5.01876 9.56477 5.00093 10.0061 4.99634L10.5891 4.99031L10.6985 4.87095C10.8336 4.7235 10.8459 4.55643 10.7339 4.38884C10.6034 4.19343 10.4976 4.16377 9.94439 4.16726C9.67556 4.16899 9.32403 4.19082 9.16322 4.21581ZM9.55614 6.67502C8.49635 6.83847 7.55616 7.50504 7.08073 8.43005C6.26538 10.0165 6.82171 11.9554 8.3448 12.8354C8.91459 13.1646 9.48116 13.3041 10.1399 13.2776C10.6766 13.2559 11.0068 13.1741 11.4759 12.9463C12.5677 12.4163 13.3075 11.2943 13.3275 10.1379C13.3332 9.81207 13.3317 9.80471 13.2374 9.70594C13.0003 9.45751 12.6274 9.54409 12.5342 9.86926C12.5167 9.93026 12.5024 10.0549 12.5024 10.1462C12.5024 10.3765 12.3937 10.7837 12.259 11.0585C11.9428 11.7033 11.3433 12.197 10.6543 12.3799C10.352 12.4601 9.81548 12.4751 9.52078 12.4115C8.59023 12.2107 7.85569 11.5113 7.6094 10.5916C7.51611 10.2432 7.51569 9.68688 7.60846 9.34075C7.84363 8.46306 8.54064 7.77524 9.42009 7.55294C9.56184 7.51713 9.75246 7.4877 9.8437 7.48761C10.1711 7.48725 10.3527 7.38561 10.4152 7.16778C10.4555 7.0274 10.4059 6.86897 10.2857 6.75378C10.1985 6.67029 10.1603 6.65807 9.96772 6.65208C9.84735 6.64836 9.66214 6.65866 9.55614 6.67502Z" fill="black"/>
</svg>
