<svg width="20" height="20" viewBox="0 0 20 20" fill="none" xmlns="http://www.w3.org/2000/svg">
<path fill-rule="evenodd" clip-rule="evenodd" d="M9.31099 1.70267C7.05131 2.07234 5.61094 3.88723 5.60491 6.3724C5.60364 6.8912 5.63674 7.17067 5.75609 7.64852C5.93073 8.34776 6.19984 9.01804 6.66848 9.92114C6.81989 10.2129 6.94377 10.4585 6.94377 10.4668C6.94377 10.4751 6.51087 10.4819 5.98175 10.4819C4.95222 10.4819 4.88192 10.4914 4.74035 10.6487C4.63914 10.7613 1.6665 17.7183 1.6665 17.8427C1.6665 18.0056 1.7813 18.1932 1.92626 18.2671C2.05406 18.3323 2.10139 18.3327 10.0059 18.3327C17.9104 18.3327 17.9577 18.3323 18.0855 18.2671C18.2305 18.1932 18.3453 18.0056 18.3453 17.8427C18.3453 17.7183 15.3726 10.7613 15.2714 10.6487C15.1299 10.4914 15.0596 10.4819 14.03 10.4819C13.5009 10.4819 13.068 10.4754 13.068 10.4674C13.068 10.4594 13.1991 10.1992 13.3594 9.88918C14.1058 8.44523 14.4059 7.44691 14.4053 6.40934C14.4047 5.28102 14.1384 4.34606 13.58 3.51121C13.3697 3.19689 12.7957 2.6228 12.4816 2.41269C12.0138 2.09977 11.4754 1.87327 10.9017 1.74808C10.5051 1.66153 9.70255 1.63859 9.31099 1.70267ZM10.4945 2.67848C11.0422 2.76154 11.449 2.91533 11.8832 3.2035C12.8809 3.86576 13.4255 4.99986 13.4261 6.41644C13.4267 7.6397 12.809 9.13411 11.4705 11.1478C11.111 11.6886 10.3369 12.7486 10.0892 13.0391L10.0059 13.1369L9.92198 13.0391C9.68522 12.7634 8.90499 11.6945 8.54148 11.1478C7.57708 9.69754 6.96759 8.46145 6.69525 7.40352C6.60916 7.06907 6.60297 7.00176 6.60235 6.39367C6.60183 5.82995 6.61192 5.69606 6.6775 5.40011C6.76998 4.98262 6.9341 4.55702 7.13493 4.21393C7.311 3.91313 7.71862 3.4674 8.00046 3.26745C8.71426 2.76109 9.62339 2.54638 10.4945 2.67848ZM9.76832 4.62165C9.34591 4.68263 8.90252 5.00295 8.71107 5.38549C8.57331 5.66082 8.52813 5.88432 8.54894 6.18779C8.59432 6.84986 9.10029 7.3987 9.77675 7.51959C10.5967 7.66611 11.4053 7.02747 11.4628 6.18779C11.529 5.22228 10.7291 4.48294 9.76832 4.62165ZM10.2698 5.66951C10.4882 5.81536 10.5579 6.1117 10.4212 6.31256C10.3019 6.48782 10.1896 6.55281 10.0059 6.55281C9.82216 6.55281 9.70984 6.48782 9.59055 6.31256C9.38803 6.01498 9.63098 5.59557 10.0059 5.59557C10.111 5.59557 10.1939 5.61879 10.2698 5.66951ZM7.7596 11.7545C7.86879 11.9169 8.05232 12.1834 8.16738 12.3465C8.28247 12.5097 8.37307 12.6461 8.36873 12.6496C8.36437 12.6531 7.39332 13.1508 6.21082 13.7556C5.02832 14.3604 4.03512 14.8685 4.00368 14.8849C3.95374 14.9109 3.95606 14.8929 4.02196 14.7424C4.06343 14.6477 4.39684 13.8702 4.76293 13.0147L5.42851 11.4592H6.49478H7.56102L7.7596 11.7545ZM15.3102 13.1563C15.71 14.0896 16.0323 14.857 16.0266 14.8616C16.0208 14.8662 14.9387 15.4292 13.6218 16.1127L11.2275 17.3554H10.7224H10.2174L8.71215 15.8488L7.20695 14.3422L8.07207 13.9024C8.5479 13.6605 8.9493 13.4626 8.96412 13.4626C8.97894 13.4626 9.14342 13.6458 9.32965 13.8698C9.71958 14.3387 9.72183 14.3408 9.88214 14.3846C10.0804 14.4386 10.2433 14.3776 10.4175 14.1838C10.8158 13.7408 11.6069 12.7009 12.1371 11.9234L12.4537 11.4592H13.5185H14.5834L15.3102 13.1563ZM7.33732 17.3476C6.53231 17.3522 5.20599 17.3522 4.3899 17.3476L2.90611 17.3391L3.12355 16.8331L3.34103 16.3271L4.8085 15.5738L6.27597 14.8205L7.53844 16.0798L8.80092 17.3391L7.33732 17.3476ZM16.7758 16.5736L17.1025 17.3391L16.1766 17.3478C15.6673 17.3525 14.8314 17.3525 14.319 17.3478L13.3874 17.3391L14.8972 16.5529C15.7276 16.1205 16.4165 15.776 16.428 15.7873C16.4396 15.7987 16.5961 16.1525 16.7758 16.5736Z" fill="#13192B"/>
</svg>
