<svg width="24" height="24" viewBox="0 0 24 24" fill="none" xmlns="http://www.w3.org/2000/svg">
<path fill-rule="evenodd" clip-rule="evenodd" d="M11.8601 2.04031C11.6853 2.12183 10.234 3.592 10.1768 3.74549C10.0914 3.97462 10.179 4.09711 11.0423 4.95631C11.8532 5.76337 11.8678 5.77522 12.0471 5.77522C12.3108 5.77522 12.4784 5.60161 12.4784 5.32852C12.4784 5.13662 12.4668 5.11918 12.0669 4.70702L11.6554 4.28296L11.9496 4.28373C12.5993 4.28548 13.6428 4.49623 14.3457 4.76765C16.4877 5.59491 18.0946 7.21935 18.8849 9.35665C19.4097 10.776 19.4892 12.416 19.1063 13.9263C18.7351 15.3908 17.8501 16.8347 16.7341 17.7963C16.2383 18.2236 16.1666 18.45 16.4433 18.7151C16.5366 18.8045 16.609 18.8335 16.7387 18.8335C16.9422 18.8335 17.0463 18.7612 17.5969 18.2373C19.8555 16.0878 20.7688 12.8771 19.984 9.84462C19.111 6.47108 16.3215 3.96362 12.873 3.45237C12.6328 3.41672 12.3354 3.38735 12.2122 3.38701C11.752 3.38581 11.7502 3.37656 12.1351 2.98222C12.4515 2.65806 12.4784 2.61687 12.4784 2.4555C12.4784 2.12613 12.1496 1.90528 11.8601 2.04031ZM6.40273 5.16736C6.27947 5.19576 6.08688 5.35005 5.63217 5.78477C4.24343 7.11241 3.3792 8.7927 3.07162 10.7631C2.97671 11.3708 2.97603 12.5482 3.07017 13.1939C3.57639 16.6667 6.07021 19.4688 9.44728 20.3592C9.88686 20.4751 10.7421 20.6124 11.0287 20.6131C11.5005 20.6143 11.5023 20.6224 11.1162 21.0179C10.8014 21.3404 10.7729 21.3839 10.7729 21.5421C10.7729 21.8764 11.0804 22.0906 11.3761 21.9624C11.557 21.8838 13.0128 20.4201 13.0745 20.2547C13.1599 20.0255 13.0723 19.903 12.209 19.0438C11.3981 18.2368 11.3835 18.2249 11.2042 18.2249C10.9405 18.2249 10.7729 18.3986 10.7729 18.6716C10.7729 18.8635 10.7845 18.881 11.1844 19.2931L11.5959 19.7172H11.3071C11.1483 19.7172 10.8145 19.6876 10.5652 19.6513C7.26206 19.171 4.71242 16.7511 4.03106 13.4497C3.94208 13.0186 3.92984 12.8435 3.92984 12.0001C3.92984 11.1566 3.94208 10.9816 4.03106 10.5505C4.38195 8.85013 5.24627 7.3244 6.46668 6.251C6.88209 5.88561 6.99141 5.7235 6.95278 5.53023C6.90592 5.29591 6.63126 5.1147 6.40273 5.16736ZM10.7444 7.07481C10.1083 7.19023 9.33877 7.50676 8.79192 7.8779C8.45847 8.10421 7.87751 8.66458 7.61389 9.01419C7.35181 9.36181 7.02334 9.99674 6.87531 10.4419C6.55029 11.4193 6.55422 12.6016 6.88563 13.5776C7.13833 14.3216 7.47852 14.8823 8.01863 15.4449C8.61081 16.0618 9.2477 16.4689 10.0414 16.738C11.026 17.0718 12.2073 17.0763 13.1838 16.7498C14.4329 16.3322 15.4987 15.4164 16.0814 14.2598C16.677 13.0779 16.7813 11.7064 16.3716 10.4439C15.8102 8.71378 14.2847 7.3913 12.4878 7.07698C12.04 6.99866 11.1702 6.99755 10.7444 7.07481ZM12.6275 8.0354C13.4065 8.24444 13.9297 8.54784 14.5036 9.12326C15.0846 9.70579 15.3834 10.2245 15.5971 11.0215C15.7227 11.4899 15.7347 12.455 15.6206 12.9105C15.4217 13.7041 15.0867 14.2937 14.503 14.8775C13.7422 15.6382 12.9117 16.0153 11.8601 16.0775C10.1369 16.1794 8.5075 15.1566 7.84042 13.5543C7.62536 13.0378 7.55518 12.6522 7.55757 12.0001C7.56 11.3193 7.61351 11.0236 7.83419 10.471C8.21421 9.51952 9.06539 8.64441 9.99405 8.25045C10.6242 7.98317 11.0551 7.9051 11.7749 7.92774C12.1192 7.93861 12.398 7.97379 12.6275 8.0354ZM11.5143 8.83278C11.4647 8.84194 11.3694 8.90662 11.3024 8.97655C11.1974 9.08616 11.1783 9.14436 11.1639 9.3989L11.1472 9.69411L10.8769 9.82061C10.5706 9.96395 10.2774 10.2347 10.1559 10.4865C10.0283 10.7507 10.0185 11.1694 10.1336 11.4368C10.313 11.8538 10.6551 12.0943 11.6043 12.4705C12.0778 12.6582 12.3078 12.8208 12.3078 12.968C12.3078 13.2054 11.9661 13.4047 11.5565 13.4061C11.3303 13.4069 11.2437 13.381 10.9073 13.2116C10.4636 12.9882 10.3359 12.9863 10.1559 13.2003C10.0195 13.3624 10.0111 13.6044 10.1365 13.7638C10.2482 13.9058 10.5393 14.0772 10.8747 14.1984L11.1353 14.2926L11.1595 14.598C11.1808 14.8662 11.1998 14.9195 11.3154 15.0351C11.5008 15.2205 11.7499 15.2211 11.9343 15.0367C12.0505 14.9205 12.0665 14.8729 12.0847 14.5889L12.1051 14.2711L12.3343 14.1762C12.6347 14.0516 12.9562 13.758 13.0933 13.483C13.3145 13.0389 13.2067 12.4705 12.8352 12.1228C12.6137 11.9155 12.3863 11.7942 11.756 11.5472C11.2046 11.331 10.9435 11.1506 10.9435 10.9857C10.9435 10.8622 11.1734 10.6469 11.3609 10.5948C11.7136 10.4969 12.0603 10.5654 12.4376 10.8075C12.7195 10.9883 12.9489 10.9685 13.1276 10.748C13.2294 10.6224 13.2252 10.3341 13.1197 10.2C13.0257 10.0805 12.548 9.81818 12.2804 9.73913L12.1036 9.68695L12.087 9.39327C12.0724 9.1346 12.0554 9.08506 11.944 8.97736C11.8138 8.8515 11.6718 8.80374 11.5143 8.83278Z" fill="#424C60"/>
</svg>
