<svg width="40" height="38" viewBox="0 0 40 38" fill="none" xmlns="http://www.w3.org/2000/svg">
<path d="M-11 0H33.7551L40 32H-11V0Z" fill="#FA3947"/>
<path d="M32 32H40L32 38V32Z" fill="#BB0000"/>
<mask id="mask0_3649_17989" style="mask-type:alpha" maskUnits="userSpaceOnUse" x="-15" y="0" width="51" height="32">
<path d="M-15 0H29.7551L36 32H-15V0Z" fill="#FA3947"/>
</mask>
<g mask="url(#mask0_3649_17989)">
<rect x="1.28906" y="40.2671" width="57.5011" height="4.57975" transform="rotate(-60 1.28906 40.2671)" fill="white"/>
</g>
<path d="M19.7188 12C19.7188 15.3137 17.0325 18 13.7188 18C10.405 18 7.71875 15.3137 7.71875 12C7.71875 8.68629 10.405 6 13.7188 6C17.0325 6 19.7188 8.68629 19.7188 12ZM10.9532 12C10.9532 13.5274 12.1914 14.7656 13.7188 14.7656C15.2461 14.7656 16.4843 13.5274 16.4843 12C16.4843 10.4726 15.2461 9.23442 13.7188 9.23442C12.1914 9.23442 10.9532 10.4726 10.9532 12Z" fill="white"/>
<path d="M28.7188 20C28.7188 23.3137 26.0325 26 22.7188 26C19.405 26 16.7188 23.3137 16.7188 20C16.7188 16.6863 19.405 14 22.7188 14C26.0325 14 28.7188 16.6863 28.7188 20ZM19.7766 20C19.7766 21.6249 21.0938 22.9422 22.7188 22.9422C24.3437 22.9422 25.6609 21.6249 25.6609 20C25.6609 18.3751 24.3437 17.0578 22.7188 17.0578C21.0938 17.0578 19.7766 18.3751 19.7766 20Z" fill="white"/>
</svg>
