<svg width="48" height="48" viewBox="0 0 48 48" fill="none" xmlns="http://www.w3.org/2000/svg">
<circle cx="24" cy="24" r="24" fill="#1D2B22"/>
<path d="M21.0834 26.0419C21.0834 27.1736 21.9584 28.0836 23.0317 28.0836H25.225C26.1584 28.0836 26.9167 27.2903 26.9167 26.2986C26.9167 25.2369 26.4501 24.8519 25.7617 24.6069L22.25 23.3819C21.5617 23.1369 21.0951 22.7636 21.0951 21.6903C21.0951 20.7103 21.8534 19.9053 22.7867 19.9053H24.98C26.0534 19.9053 26.9284 20.8153 26.9284 21.9469" stroke="#27AE60" stroke-width="1.75" stroke-linecap="round" stroke-linejoin="round"/>
<path d="M24 18.75V29.25" stroke="#27AE60" stroke-width="1.75" stroke-linecap="round" stroke-linejoin="round"/>
<path d="M35.6667 24.0002C35.6667 30.4402 30.44 35.6668 24 35.6668C17.56 35.6668 12.3334 30.4402 12.3334 24.0002C12.3334 17.5602 17.56 12.3335 24 12.3335" stroke="#27AE60" stroke-width="1.75" stroke-linecap="round" stroke-linejoin="round"/>
<path d="M29.8334 13.5V18.1667H34.5" stroke="#27AE60" stroke-width="1.75" stroke-linecap="round" stroke-linejoin="round"/>
<path d="M35.6667 12.3335L29.8334 18.1668" stroke="#27AE60" stroke-width="1.75" stroke-linecap="round" stroke-linejoin="round"/>
</svg>
