<svg width="48" height="48" viewBox="0 0 48 48" fill="none" xmlns="http://www.w3.org/2000/svg">
<circle cx="24" cy="24" r="24" fill="#273035"/>
<path d="M13.6984 18.6807L24 24.6423L34.2317 18.7156" stroke="#2D9CDB" stroke-width="1.75" stroke-linecap="round" stroke-linejoin="round"/>
<path d="M24 35.2116V24.6299" stroke="#2D9CDB" stroke-width="1.75" stroke-linecap="round" stroke-linejoin="round"/>
<path d="M21.585 12.8935L15.355 16.3585C13.9433 17.1402 12.7883 19.1002 12.7883 20.7102V27.3019C12.7883 28.9119 13.9433 30.8718 15.355 31.6535L21.585 35.1186C22.915 35.8536 25.0966 35.8536 26.4266 35.1186L32.6567 31.6535C34.0683 30.8718 35.2233 28.9119 35.2233 27.3019V20.7102C35.2233 19.1002 34.0683 17.1402 32.6567 16.3585L26.4266 12.8935C25.085 12.1468 22.915 12.1468 21.585 12.8935Z" stroke="#2D9CDB" stroke-width="1.75" stroke-linecap="round" stroke-linejoin="round"/>
<path d="M29.8334 25.4461V21.1761L18.7617 14.7827" stroke="#2D9CDB" stroke-width="1.75" stroke-linecap="round" stroke-linejoin="round"/>
</svg>
