<svg width="48" height="48" viewBox="0 0 48 48" fill="none" xmlns="http://www.w3.org/2000/svg">
<circle cx="24" cy="24" r="24" fill="#27221E"/>
<path d="M33.1836 23.4699L32.3447 23.2211L33.1836 23.4699ZM32.0373 27.334L32.8761 27.5829L32.0373 27.334ZM15.9628 27.334L16.8017 27.0852L15.9628 27.334ZM14.8165 23.4699L13.9776 23.7187H13.9776L14.8165 23.4699ZM20.4828 33.1055L20.7249 32.2647H20.7249L20.4828 33.1055ZM17.1814 30.6413L16.4441 31.1125L17.1814 30.6413ZM30.8187 30.6413L31.556 31.1125L30.8187 30.6413ZM27.5173 33.1055L27.2752 32.2647L27.5173 33.1055ZM34.3518 19.3332V18.4582H33.6649L33.5018 19.1256L34.3518 19.3332ZM13.6482 19.3332V18.4582H12.5338L12.7982 19.5408L13.6482 19.3332ZM12.3334 18.4582C11.8501 18.4582 11.4584 18.8499 11.4584 19.3332C11.4584 19.8164 11.8501 20.2082 12.3334 20.2082V18.4582ZM35.6667 20.2082C36.15 20.2082 36.5417 19.8164 36.5417 19.3332C36.5417 18.8499 36.15 18.4582 35.6667 18.4582V20.2082ZM27.2084 23.9999C27.2084 23.5166 26.8166 23.1249 26.3334 23.1249C25.8501 23.1249 25.4584 23.5166 25.4584 23.9999H27.2084ZM25.4584 28.6665C25.4584 29.1498 25.8501 29.5415 26.3334 29.5415C26.8166 29.5415 27.2084 29.1498 27.2084 28.6665H25.4584ZM28.1188 14.0478C27.7771 13.7061 27.2231 13.7061 26.8814 14.0478C26.5397 14.3895 26.5397 14.9435 26.8814 15.2852L28.1188 14.0478ZM21.4018 15.2852C21.7435 14.9435 21.7435 14.3895 21.4018 14.0478C21.0601 13.7061 20.5061 13.7061 20.1644 14.0478L21.4018 15.2852ZM22.5417 23.9999C22.5417 23.5166 22.15 23.1249 21.6667 23.1249C21.1835 23.1249 20.7917 23.5166 20.7917 23.9999H22.5417ZM20.7917 28.6665C20.7917 29.1498 21.1835 29.5415 21.6667 29.5415C22.15 29.5415 22.5417 29.1498 22.5417 28.6665H20.7917ZM32.3447 23.2211L31.1984 27.0852L32.8761 27.5829L34.0224 23.7188L32.3447 23.2211ZM16.8017 27.0852L15.6554 23.221L13.9776 23.7187L15.1239 27.5829L16.8017 27.0852ZM24 32.4582C22.127 32.4582 21.3682 32.4499 20.7249 32.2647L20.2407 33.9464C21.179 34.2165 22.2379 34.2082 24 34.2082V32.4582ZM15.1239 27.5829C15.6251 29.2723 15.9183 30.2897 16.4441 31.1125L17.9187 30.1701C17.5581 29.6059 17.3344 28.8808 16.8017 27.0852L15.1239 27.5829ZM20.7249 32.2647C19.5658 31.931 18.5682 31.1863 17.9187 30.1701L16.4441 31.1125C17.3229 32.4874 18.6726 33.4949 20.2407 33.9464L20.7249 32.2647ZM31.1984 27.0852C30.6657 28.8808 30.442 29.6059 30.0814 30.1701L31.556 31.1125C32.0818 30.2897 32.375 29.2723 32.8761 27.5829L31.1984 27.0852ZM24 34.2082C25.7622 34.2082 26.8211 34.2165 27.7594 33.9464L27.2752 32.2647C26.6318 32.4499 25.8731 32.4582 24 32.4582V34.2082ZM30.0814 30.1701C29.4319 31.1863 28.4342 31.931 27.2752 32.2647L27.7594 33.9464C29.3274 33.4949 30.6772 32.4874 31.556 31.1125L30.0814 30.1701ZM34.0224 23.7188C34.5143 22.0606 34.921 20.6904 35.2019 19.5408L33.5018 19.1256C33.2334 20.2243 32.841 21.5481 32.3447 23.2211L34.0224 23.7188ZM15.6554 23.221C15.1591 21.5481 14.7666 20.2243 14.4982 19.1256L12.7982 19.5408C13.079 20.6904 13.4858 22.0606 13.9776 23.7187L15.6554 23.221ZM25.4584 23.9999V28.6665H27.2084V23.9999H25.4584ZM20.7917 23.9999V28.6665H22.5417V23.9999H20.7917ZM26.8814 15.2852L31.548 19.9519L32.7855 18.7145L28.1188 14.0478L26.8814 15.2852ZM32.1668 20.2082H34.5V18.4582H32.1668V20.2082ZM34.5 20.2082H35.6667V18.4582H34.5V20.2082ZM34.3518 20.2082H34.5V18.4582H34.3518V20.2082ZM12.3334 20.2082H16.1165V18.4582H12.3334V20.2082ZM16.1165 20.2082H32.1668V18.4582H16.1165V20.2082ZM20.1644 14.0478L15.4977 18.7145L16.7352 19.9519L21.4018 15.2852L20.1644 14.0478ZM13.6482 20.2082H16.1165V18.4582H13.6482V20.2082Z" fill="#F2994A"/>
</svg>
