<svg width="68" height="17" viewBox="0 0 68 17" fill="none" xmlns="http://www.w3.org/2000/svg">
<path fill-rule="evenodd" clip-rule="evenodd" d="M9.13212 6.0978C8.97643 6.26582 8.78047 6.36067 8.54425 6.38235C8.76973 6.38235 8.96301 6.46366 9.12407 6.62626C9.2905 6.79428 9.37371 6.99754 9.37371 7.23602L9.38176 9.11409C9.38176 9.35258 9.29855 9.55583 9.13212 9.72385C8.97106 9.89188 8.77242 9.97589 8.5362 9.97589L2.27095 9.99215L2.2629 5.48803L4.04261 5.4799V5.49617L7.27187 5.48803C7.36314 5.48261 7.44099 5.45009 7.50541 5.39047C7.56983 5.32543 7.59399 5.25226 7.59399 5.16283V4.91079C7.59399 4.82136 7.56178 4.74819 7.50541 4.68315C7.44099 4.62353 7.36314 4.59372 7.27187 4.59372H4.58217L0 4.60185V2.80508L8.48788 2.78882C8.72947 2.78882 8.93885 2.87825 9.10796 3.04898C9.27707 3.21972 9.36566 3.4311 9.36566 3.67501L9.37371 5.48803C9.37371 5.72652 9.29318 5.92977 9.13212 6.0978ZM7.60205 7.65879C7.60205 7.55581 7.56715 7.46638 7.49736 7.3905C7.4222 7.32003 7.33361 7.2848 7.23161 7.2848L4.05067 7.29293V8.18725L7.23161 8.17912C7.33898 8.17912 7.42757 8.14118 7.49736 8.0653C7.56715 7.99484 7.60205 7.90812 7.60205 7.80513V7.65879Z" fill="url(#paint0_linear_29_13)"/>
<path fill-rule="evenodd" clip-rule="evenodd" d="M37.9937 15.9923H37.1803V13.1548C37.1803 13.1223 37.1723 13.0925 37.1562 13.0654C37.1454 13.0383 37.1293 13.0139 37.1078 12.9922C37.0864 12.9705 37.0622 12.9543 37.0354 12.9434C37.0085 12.9326 36.979 12.9272 36.9468 12.9272H33.1699V12.0979H36.9468C37.0917 12.0979 37.2286 12.1277 37.3575 12.1873C37.481 12.2415 37.591 12.3147 37.6877 12.4068C37.7843 12.5044 37.8595 12.6182 37.9131 12.7483C37.9668 12.8784 37.9937 13.0139 37.9937 13.1548V15.9923ZM33.9913 15.9923H33.1699V13.6345H33.9913V15.9923ZM35.9885 15.9923H35.1671V13.6345H35.9885V15.9923Z" fill="url(#paint1_linear_29_13)"/>
<path fill-rule="evenodd" clip-rule="evenodd" d="M43.857 15.9923H43.0356V14.4638H39.8466V15.9923H39.0332V13.1386C39.0332 12.9922 39.06 12.8567 39.1137 12.7321C39.1621 12.6074 39.2345 12.499 39.3312 12.4068C39.4224 12.3147 39.5298 12.2388 39.6533 12.1792C39.7768 12.125 39.9083 12.0979 40.0479 12.0979H42.8342C42.9738 12.0979 43.1053 12.125 43.2288 12.1792C43.3523 12.2388 43.4597 12.3147 43.5509 12.4068C43.6476 12.499 43.7227 12.6074 43.7764 12.7321C43.8301 12.8567 43.857 12.9922 43.857 13.1386V15.9923ZM43.0356 13.6345V13.1304C43.0356 13.0708 43.0168 13.0193 42.9792 12.976C42.9362 12.938 42.8879 12.919 42.8342 12.919H40.0479C39.9942 12.919 39.9486 12.938 39.911 12.976C39.868 13.0193 39.8466 13.0708 39.8466 13.1304V13.6345H43.0356Z" fill="#13192B" stroke="#13192B" stroke-width="0.216974"/>
<path d="M50.5892 15.9923H48.8256L44.8877 13.8947V13.6345H48.6404C48.6887 13.6345 48.7344 13.6155 48.7773 13.5776C48.8149 13.5397 48.8337 13.4936 48.8337 13.4394V13.1223C48.8337 13.0681 48.8149 13.022 48.7773 12.9841C48.7344 12.9461 48.6887 12.9272 48.6404 12.9272H44.8877V12.0979H48.6404C48.78 12.0979 48.9115 12.125 49.035 12.1792C49.1531 12.2334 49.2605 12.3066 49.3571 12.3987C49.4484 12.4963 49.5209 12.6047 49.5746 12.7239C49.6282 12.8486 49.6551 12.9814 49.6551 13.1223V13.4394C49.6551 13.5803 49.6282 13.7131 49.5746 13.8378C49.5209 13.9624 49.4484 14.0708 49.3571 14.163C49.2605 14.2551 49.1531 14.3283 49.035 14.3825C48.9115 14.4367 48.78 14.4638 48.6404 14.4638H47.666L50.5892 15.9923Z" fill="#13192B"/>
<path d="M52.2401 16.0004H51.4268V12.0979H52.2401V16.0004ZM56.0653 16.0004H55.2439V14.667C55.2439 14.6074 55.2251 14.5586 55.1875 14.5207C55.1499 14.4828 55.1043 14.4638 55.0506 14.4638H52.2482L54.503 12.106H55.6385L54.1728 13.6426H55.0506C55.1902 13.6426 55.3217 13.6697 55.4452 13.7239C55.5633 13.7781 55.6707 13.8513 55.7673 13.9434C55.8586 14.0356 55.9311 14.144 55.9848 14.2687C56.0385 14.3933 56.0653 14.5261 56.0653 14.667V16.0004Z" fill="#13192B"/>
<path d="M61.7745 12.9272H57.0957V12.0979H61.7745V12.9272ZM61.7745 16.0004H57.0957V13.6426H61.7745V14.4638H57.9171V15.1792H61.7745V16.0004Z" fill="#13192B"/>
<path d="M67.6294 12.9272H62.8057V12.0979H67.6294V12.9272ZM65.6242 16.0004H64.8109V13.6426H65.6242V16.0004Z" fill="#13192B"/>
<path d="M12.7321 7.30099L12.7402 8.19531L18.0632 8.17905L18.0713 9.97582L10.9685 9.99207L10.9524 5.51235L18.0551 5.49609L18.0632 7.29286L12.7321 7.30099ZM18.0471 2.79688V4.59364L10.9443 4.6099V2.82127L18.0471 2.79688Z" fill="#13192B"/>
<path d="M26.3977 2.78882L26.4138 9.9515L24.6341 9.95963L21.0746 5.48804L21.0827 9.96776L19.311 9.97589L19.2949 2.80508L21.0666 2.79695L24.6341 7.27667L24.618 2.78882H26.3977Z" fill="#13192B"/>
<path d="M34.7248 2.7644L34.749 9.93522H32.9693L29.4098 5.46362L29.4179 9.95148H27.6382L27.6221 2.78066H29.4018L32.9612 7.25226L32.9532 2.77253L34.7248 2.7644Z" fill="#13192B"/>
<path d="M37.737 7.24403L37.745 8.13022L43.0681 8.12209V9.91073L35.9734 9.93512L35.9653 5.44726L43.06 5.431L43.0681 7.22777L37.737 7.24403ZM43.052 2.74805V4.53668L35.9573 4.56108L35.9492 2.76431L43.052 2.74805Z" fill="#13192B"/>
<path fill-rule="evenodd" clip-rule="evenodd" d="M51.1768 6.03261C51.0211 6.20064 50.8252 6.29278 50.589 6.30904C50.8145 6.31717 51.0077 6.39847 51.1688 6.56107C51.3298 6.7291 51.4104 6.92964 51.4104 7.16271L51.4184 9.04077C51.4184 9.27926 51.3379 9.48251 51.1768 9.65054C51.0077 9.81314 50.8145 9.90257 50.5809 9.90257L44.3237 9.91883L44.3076 5.41472H46.0954V5.42285L49.3166 5.41472C49.4079 5.41472 49.483 5.38491 49.5421 5.32529C49.6065 5.26025 49.6387 5.18165 49.6387 5.08951V4.84561C49.6387 4.75347 49.6065 4.67758 49.5421 4.61796C49.4777 4.55834 49.4025 4.52853 49.3166 4.52853H46.6269L44.3076 4.53666V2.73989L50.5245 2.72363C50.7661 2.72363 50.9755 2.81306 51.1446 2.9838C51.3218 3.15453 51.4023 3.36592 51.4023 3.60982L51.4104 5.42285C51.4104 5.66133 51.3325 5.86459 51.1768 6.03261ZM49.6468 7.58547C49.6468 7.48249 49.6092 7.39577 49.534 7.32531C49.4642 7.24943 49.3783 7.21149 49.2763 7.21149L46.0954 7.21962V8.11394L49.2763 8.10581C49.3783 8.10581 49.4642 8.07057 49.534 8.00011C49.6092 7.92965 49.6468 7.84022 49.6468 7.73182V7.58547Z" fill="#13192B"/>
<path d="M67.9914 3.43921L64.0132 3.63434L67.9914 3.8132V4.47987L63.0791 4.488C62.9663 4.488 62.8617 4.52865 62.7892 4.60996C62.7006 4.69126 62.6684 4.78882 62.6684 4.90264V4.95955C62.6684 5.0788 62.7087 5.17907 62.7892 5.26037C62.8778 5.34167 62.9744 5.38232 63.0871 5.38232L66.2761 5.37419C66.5875 5.37419 66.8747 5.45278 67.1378 5.60997C67.3955 5.76444 67.6049 5.97583 67.7659 6.23599C67.919 6.49616 67.9995 6.78884 67.9995 7.11405V8.10593C67.9995 8.42301 67.927 8.72382 67.7659 8.98399C67.6103 9.24957 67.4009 9.46096 67.1378 9.61814C66.8801 9.77533 66.5902 9.85392 66.2681 9.85392L60.9048 9.87018L60.8967 8.07341L65.7849 8.06528C65.8976 8.06528 66.0023 8.02463 66.0909 7.9352C66.1768 7.84847 66.2198 7.74278 66.2198 7.61812C66.2198 7.49346 66.1768 7.38777 66.0909 7.30104C66.005 7.21432 65.9003 7.17096 65.7768 7.17096L62.4912 7.17909C62.2013 7.17909 61.9329 7.10863 61.6859 6.96771C61.4443 6.82136 61.2511 6.62624 61.1061 6.38233C60.9665 6.13843 60.894 5.86742 60.8887 5.56932V4.4067C60.8887 4.08963 60.9611 3.80507 61.1142 3.5449C61.2645 3.29016 61.4685 3.08419 61.7262 2.92701C61.9785 2.77525 62.2604 2.69937 62.5717 2.69937L67.9834 2.68311L67.9914 3.43921Z" fill="#13192B"/>
<path d="M57.619 2.38214C56.8217 3.1789 55.9279 2.91873 55.7587 2.75613C55.5977 2.58539 55.3641 1.65855 56.1292 0.878058C56.6446 0.363148 57.4311 0.0704615 58.4887 0C58.435 1.0515 58.1451 1.84555 57.619 2.38214Z" fill="url(#paint2_linear_29_13)"/>
<path fill-rule="evenodd" clip-rule="evenodd" d="M59.8987 7.84573C59.0692 9.65876 57.5311 10.6425 56.2104 9.78071C54.8897 10.6425 53.3435 9.65876 52.514 7.84573C52.055 6.83759 51.9825 5.34977 52.4899 4.34163C52.7798 3.74812 53.2469 3.37414 53.722 3.2034C54.487 2.94324 55.4373 3.1221 56.2104 3.70747C56.9754 3.1221 57.9337 2.94324 58.6907 3.2034C59.1739 3.37414 59.6329 3.74812 59.9228 4.34163C60.4302 5.34977 60.3657 6.83759 59.8987 7.84573ZM54.5515 8.5368C53.9394 7.93516 53.5448 7.19532 53.4321 6.4636C53.3193 5.65058 53.569 4.83757 54.0924 4.32537C54.1971 4.21967 54.2052 4.04894 54.1005 3.94325C53.9958 3.82943 53.8267 3.82943 53.722 3.93512C53.0778 4.56114 52.7637 5.56115 52.9006 6.5449C53.0294 7.39044 53.4804 8.23598 54.181 8.92704C54.2293 8.97582 54.3018 9.00022 54.3662 9.00022C54.4387 9.00022 54.5031 8.97582 54.5595 8.91891C54.6642 8.81322 54.6642 8.64249 54.5515 8.5368Z" fill="url(#paint3_linear_29_13)"/>
<path d="M7.0468 12.2196C7.44263 12.2196 7.76351 11.8957 7.76351 11.496C7.76351 11.0964 7.44263 10.7725 7.0468 10.7725C6.65096 10.7725 6.33008 11.0964 6.33008 11.496C6.33008 11.8957 6.65096 12.2196 7.0468 12.2196Z" fill="url(#paint4_linear_29_13)"/>
<path d="M4.38859 12.2196C4.78443 12.2196 5.10531 11.8957 5.10531 11.496C5.10531 11.0964 4.78443 10.7725 4.38859 10.7725C3.99276 10.7725 3.67188 11.0964 3.67188 11.496C3.67188 11.8957 3.99276 12.2196 4.38859 12.2196Z" fill="url(#paint5_linear_29_13)"/>
<path style="mix-blend-mode:screen" d="M56.4679 6.5205C56.6853 7.90263 56.806 9.04899 56.7336 9.08964C56.6692 9.13029 56.4437 8.04084 56.2344 6.66685C56.017 5.28472 55.8963 4.13023 55.9607 4.08958C56.0251 4.05706 56.2505 5.13837 56.4679 6.5205Z" fill="url(#paint6_radial_29_13)"/>
<path style="mix-blend-mode:screen" d="M56.4353 6.47158C56.6044 7.53664 56.693 8.4147 56.6366 8.42283C56.5803 8.43096 56.4031 7.56916 56.2341 6.50411C56.073 5.43092 55.9764 4.55286 56.0328 4.54473C56.0891 4.5366 56.2663 5.3984 56.4353 6.47158Z" fill="url(#paint7_radial_29_13)"/>
<path style="mix-blend-mode:screen" d="M56.4195 6.47151C56.5564 7.3577 56.6289 8.08129 56.5886 8.08942C56.5403 8.09755 56.3954 7.38209 56.2505 6.4959C56.1136 5.60971 56.0411 4.88613 56.0814 4.878C56.1297 4.86987 56.2746 5.58532 56.4195 6.47151Z" fill="url(#paint8_radial_29_13)"/>
<path style="mix-blend-mode:screen" d="M56.4197 6.71547C55.1151 6.92686 54.0199 7.03255 53.9797 6.96751C53.9394 6.89434 54.9702 6.67482 56.2828 6.46344C57.5874 6.26018 58.6826 6.14636 58.7148 6.21953C58.7551 6.28457 57.7243 6.51222 56.4197 6.71547Z" fill="url(#paint9_radial_29_13)"/>
<path style="mix-blend-mode:screen" d="M56.4675 6.68309C55.4528 6.84569 54.6233 6.92699 54.6153 6.87008C54.6072 6.81317 55.4206 6.63431 56.4353 6.4717C57.45 6.3091 58.2794 6.2278 58.2875 6.28471C58.2955 6.34162 57.4822 6.52048 56.4675 6.68309Z" fill="url(#paint10_radial_29_13)"/>
<path style="mix-blend-mode:screen" d="M56.4679 6.66682C55.6223 6.7969 54.9378 6.87008 54.9298 6.82129C54.9217 6.77251 55.5982 6.62617 56.4357 6.49609C57.2812 6.35787 57.9657 6.2847 57.9738 6.33348C57.9819 6.38227 57.3054 6.52861 56.4679 6.66682Z" fill="url(#paint11_radial_29_13)"/>
<path style="mix-blend-mode:screen" d="M56.443 6.61811C55.8954 7.41486 55.4042 8.04902 55.3559 8.03276C55.2995 8.02463 55.7021 7.36608 56.2578 6.5612C56.8054 5.76444 57.2886 5.13029 57.3449 5.14655C57.3933 5.16281 56.9906 5.82135 56.443 6.61811Z" fill="url(#paint12_radial_29_13)"/>
<path style="mix-blend-mode:screen" d="M56.4518 6.57738C56.025 7.19528 55.6545 7.67496 55.6223 7.65057C55.5901 7.62617 55.9122 7.10584 56.3391 6.48795C56.7578 5.87006 57.1363 5.38225 57.1605 5.40664C57.1927 5.43103 56.8786 5.95949 56.4518 6.57738Z" fill="url(#paint13_radial_29_13)"/>
<path style="mix-blend-mode:screen" d="M56.4429 6.56912C56.0887 7.08132 55.7828 7.4797 55.7505 7.46344C55.7264 7.43905 55.9921 7.00815 56.3463 6.49595C56.7006 5.98375 57.0065 5.57724 57.0307 5.60163C57.0548 5.61789 56.7972 6.05692 56.4429 6.56912Z" fill="url(#paint14_radial_29_13)"/>
<path style="mix-blend-mode:screen" d="M56.323 6.69111C55.5579 6.09761 54.9539 5.57728 54.962 5.52036C54.9781 5.47158 55.6062 5.90248 56.3713 6.49599C57.1363 7.08136 57.7483 7.60169 57.7322 7.6586C57.7242 7.71551 57.088 7.28461 56.323 6.69111Z" fill="url(#paint15_radial_29_13)"/>
<path style="mix-blend-mode:screen" d="M56.3627 6.69937C55.7749 6.24408 55.3078 5.8457 55.332 5.81318C55.3561 5.78066 55.8554 6.12212 56.4513 6.57741C57.0392 7.0327 57.5063 7.43108 57.4821 7.4636C57.4579 7.49612 56.9587 7.15466 56.3627 6.69937Z" fill="url(#paint16_radial_29_13)"/>
<path style="mix-blend-mode:screen" d="M56.3713 6.69125C55.8801 6.30914 55.4935 5.98393 55.5177 5.95141C55.5338 5.92702 55.9525 6.21157 56.4438 6.58556C56.935 6.96768 57.3215 7.30102 57.2974 7.32541C57.2813 7.3498 56.8625 7.06524 56.3713 6.69125Z" fill="url(#paint17_radial_29_13)"/>
<path style="mix-blend-mode:screen" d="M57.4983 6.41474C57.5869 7.10581 57.1279 7.76435 56.4676 7.87817C55.8072 8.00012 55.2032 7.5367 55.1066 6.85377C55.01 6.16271 55.469 5.51229 56.1293 5.39034C56.7897 5.26839 57.4017 5.73181 57.4983 6.41474Z" fill="url(#paint18_radial_29_13)"/>
<path style="mix-blend-mode:screen" d="M57.2498 6.43097C57.3303 6.95943 56.9841 7.4635 56.4687 7.5448C55.9533 7.62611 55.4701 7.26025 55.3896 6.72366C55.309 6.1952 55.6553 5.69925 56.1707 5.61795C56.678 5.53665 57.1612 5.89438 57.2498 6.43097Z" fill="url(#paint19_radial_29_13)"/>
<path style="mix-blend-mode:screen" d="M57.0883 6.45532C57.1608 6.89435 56.8709 7.30899 56.4441 7.37403C56.0172 7.4472 55.6146 7.13826 55.5502 6.69923C55.4777 6.2602 55.7676 5.84556 56.1944 5.78052C56.6212 5.70734 57.0158 6.01629 57.0883 6.45532Z" fill="url(#paint20_radial_29_13)"/>
<defs>
<linearGradient id="paint0_linear_29_13" x1="7.50541" y1="239.778" x2="1100.48" y2="239.778" gradientUnits="userSpaceOnUse">
<stop stop-color="#74C247"/>
<stop offset="0.5" stop-color="#28873D"/>
<stop offset="1" stop-color="#74C247"/>
</linearGradient>
<linearGradient id="paint1_linear_29_13" x1="2023.93" y1="586.125" x2="2312.88" y2="586.125" gradientUnits="userSpaceOnUse">
<stop stop-color="#74C247"/>
<stop offset="0.5" stop-color="#28873D"/>
<stop offset="1" stop-color="#74C247"/>
</linearGradient>
<linearGradient id="paint2_linear_29_13" x1="2063.45" y1="-3.80925" x2="2159.82" y2="-3.80925" gradientUnits="userSpaceOnUse">
<stop stop-color="#74C247"/>
<stop offset="0.5" stop-color="#28873D"/>
<stop offset="1" stop-color="#74C247"/>
</linearGradient>
<linearGradient id="paint3_linear_29_13" x1="5342.8" y1="261.054" x2="6134.65" y2="261.054" gradientUnits="userSpaceOnUse">
<stop stop-color="#74C247"/>
<stop offset="0.5" stop-color="#28873D"/>
<stop offset="1" stop-color="#74C247"/>
</linearGradient>
<linearGradient id="paint4_linear_29_13" x1="120.145" y1="200.352" x2="145.803" y2="200.352" gradientUnits="userSpaceOnUse">
<stop stop-color="#74C247"/>
<stop offset="0.5" stop-color="#28873D"/>
<stop offset="1" stop-color="#74C247"/>
</linearGradient>
<linearGradient id="paint5_linear_29_13" x1="70.1833" y1="200.352" x2="95.6985" y2="200.352" gradientUnits="userSpaceOnUse">
<stop stop-color="#74C247"/>
<stop offset="0.5" stop-color="#28873D"/>
<stop offset="1" stop-color="#74C247"/>
</linearGradient>
<radialGradient id="paint6_radial_29_13" cx="0" cy="0" r="1" gradientUnits="userSpaceOnUse" gradientTransform="translate(624.239 412.742) scale(1.21691 7.50281)">
<stop stop-color="#7EC647"/>
<stop offset="1" stop-color="#0C0D0D"/>
</radialGradient>
<radialGradient id="paint7_radial_29_13" cx="0" cy="0" r="1" gradientUnits="userSpaceOnUse" gradientTransform="translate(502.14 316.352) scale(0.70065 4.26603)">
<stop stop-color="#46BA4A"/>
<stop offset="1" stop-color="#0C0D0D"/>
</radialGradient>
<radialGradient id="paint8_radial_29_13" cx="0" cy="0" r="1" gradientUnits="userSpaceOnUse" gradientTransform="translate(426.841 263.087) scale(0.476433 2.8904)">
<stop stop-color="#75C447"/>
<stop offset="1" stop-color="#0C0D0D"/>
</radialGradient>
<radialGradient id="paint9_radial_29_13" cx="0" cy="0" r="1" gradientUnits="userSpaceOnUse" gradientTransform="translate(3372.57 70.6833) scale(7.57993 1.26288)">
<stop stop-color="#7EC647"/>
<stop offset="1" stop-color="#0C0D0D"/>
</radialGradient>
<radialGradient id="paint10_radial_29_13" cx="0" cy="0" r="1" gradientUnits="userSpaceOnUse" gradientTransform="translate(2631.83 56.9258) scale(4.03952 0.683744)">
<stop stop-color="#46BA4A"/>
<stop offset="1" stop-color="#0C0D0D"/>
</radialGradient>
<radialGradient id="paint11_radial_29_13" cx="0" cy="0" r="1" gradientUnits="userSpaceOnUse" gradientTransform="translate(2191.34 48.5465) scale(3.04418 0.518136)">
<stop stop-color="#75C447"/>
<stop offset="1" stop-color="#0C0D0D"/>
</radialGradient>
<radialGradient id="paint12_radial_29_13" cx="0" cy="0" r="1" gradientUnits="userSpaceOnUse" gradientTransform="translate(1455.15 241) scale(2.39795 3.46419)">
<stop stop-color="#7EC647"/>
<stop offset="1" stop-color="#0C0D0D"/>
</radialGradient>
<radialGradient id="paint13_radial_29_13" cx="0" cy="0" r="1" gradientUnits="userSpaceOnUse" gradientTransform="translate(1137.15 187.082) scale(1.38835 2.02112)">
<stop stop-color="#46BA4A"/>
<stop offset="1" stop-color="#0C0D0D"/>
</radialGradient>
<radialGradient id="paint14_radial_29_13" cx="0" cy="0" r="1" gradientUnits="userSpaceOnUse" gradientTransform="translate(955.416 156.344) scale(0.898255 1.30433)">
<stop stop-color="#75C447"/>
<stop offset="1" stop-color="#0C0D0D"/>
</radialGradient>
<radialGradient id="paint15_radial_29_13" cx="0" cy="0" r="1" gradientUnits="userSpaceOnUse" gradientTransform="translate(1995.79 180.93) scale(3.32476 2.57645)">
<stop stop-color="#7EC647"/>
<stop offset="1" stop-color="#0C0D0D"/>
</radialGradient>
<radialGradient id="paint16_radial_29_13" cx="0" cy="0" r="1" gradientUnits="userSpaceOnUse" gradientTransform="translate(1564.49 141.994) scale(1.93675 1.48924)">
<stop stop-color="#46BA4A"/>
<stop offset="1" stop-color="#0C0D0D"/>
</radialGradient>
<radialGradient id="paint17_radial_29_13" cx="0" cy="0" r="1" gradientUnits="userSpaceOnUse" gradientTransform="translate(1305.14 119.27) scale(1.2473 0.96384)">
<stop stop-color="#75C447"/>
<stop offset="1" stop-color="#0C0D0D"/>
</radialGradient>
<radialGradient id="paint18_radial_29_13" cx="0" cy="0" r="1" gradientUnits="userSpaceOnUse" gradientTransform="translate(1745.72 213.075) scale(34.059 35.6281)">
<stop stop-color="#7EC647"/>
<stop offset="1" stop-color="#0C0D0D"/>
</radialGradient>
<radialGradient id="paint19_radial_29_13" cx="0" cy="0" r="1" gradientUnits="userSpaceOnUse" gradientTransform="translate(1374.01 164.504) scale(20.5301 21.2513)">
<stop stop-color="#46BA4A"/>
<stop offset="1" stop-color="#0C0D0D"/>
</radialGradient>
<radialGradient id="paint20_radial_29_13" cx="0" cy="0" r="1" gradientUnits="userSpaceOnUse" gradientTransform="translate(1147.94 137.392) scale(14.0431 14.535)">
<stop stop-color="#75C447"/>
<stop offset="1" stop-color="#0C0D0D"/>
</radialGradient>
</defs>
</svg>
