<svg width="206" height="49" viewBox="0 0 206 49" fill="none" xmlns="http://www.w3.org/2000/svg">
<path d="M28.3911 16.4733L28.3783 11.0245C28.3793 10.6746 28.3108 10.328 28.177 10.0048C28.0431 9.6815 27.8465 9.38795 27.5985 9.14109C27.3505 8.89423 27.056 8.69896 26.732 8.56655C26.4081 8.43415 26.0611 8.36724 25.7111 8.36969L0 8.41491L0.0127556 13.8011L13.872 13.7848V13.7929L22.0291 13.7732C22.1579 13.7717 22.2857 13.7957 22.4051 13.8439C22.5246 13.892 22.6333 13.9634 22.7249 14.0538C22.8181 14.1416 22.8917 14.2482 22.9406 14.3665C22.9896 14.4848 23.0129 14.6121 23.0091 14.7401V15.4809C23.0136 15.609 22.991 15.7366 22.9426 15.8553C22.8942 15.974 22.8212 16.0811 22.7284 16.1695C22.6369 16.2605 22.5284 16.3324 22.4089 16.3811C22.2895 16.4299 22.1616 16.4545 22.0326 16.4535L12.2519 16.4767V16.442L6.8467 16.4547L6.87917 29.9688L25.8653 29.9236C26.5452 29.9171 27.195 29.6422 27.6729 29.1588C28.1508 28.6754 28.4182 28.0226 28.4166 27.3429L28.4038 21.7006C28.4089 21.3627 28.3446 21.0274 28.2149 20.7154C28.0853 20.4033 27.893 20.1211 27.6501 19.8863C27.4215 19.6494 27.1472 19.4613 26.8438 19.3334C26.5405 19.2054 26.2143 19.1403 25.885 19.142C26.5671 19.1004 27.2072 18.7987 27.6733 18.2992C27.9088 18.0582 28.0937 17.7724 28.217 17.4588C28.3403 17.1452 28.3995 16.8101 28.3911 16.4733ZM23.0288 23.4059C23.0303 23.5533 23.0025 23.6995 22.947 23.836C22.8915 23.9726 22.8094 24.0967 22.7055 24.2012C22.6016 24.3058 22.4779 24.3886 22.3417 24.4449C22.2055 24.5012 22.0594 24.5299 21.912 24.5293L12.2728 24.5525L12.2659 21.8722L21.9039 21.849C22.0517 21.8437 22.199 21.8699 22.336 21.9259C22.4729 21.9818 22.5964 22.0663 22.6983 22.1736C22.8046 22.2758 22.8886 22.3989 22.9451 22.5352C23.0016 22.6715 23.0293 22.8179 23.0264 22.9654L23.0288 23.4059Z" fill="url(#paint0_linear_3508_16354)"/>
<path d="M115.1 47.9848H112.623V39.4639C112.623 39.3726 112.604 39.2822 112.568 39.1984C112.532 39.1173 112.482 39.0434 112.42 38.9805C112.357 38.9182 112.283 38.8683 112.202 38.8332C112.118 38.7966 112.028 38.778 111.937 38.7787H100.484V36.3013H111.937C112.358 36.2994 112.774 36.3842 113.16 36.5506C113.925 36.8682 114.533 37.476 114.85 38.2408C115.017 38.6269 115.102 39.0433 115.1 39.4639V47.9848ZM102.961 47.9848H100.484V40.913H102.961V47.9848ZM109.023 47.9848H106.549V40.913H109.028L109.023 47.9848Z" fill="url(#paint1_linear_3508_16354)"/>
<path d="M132.85 47.9852H130.373V43.3897H120.711V47.9852H118.234V39.4063C118.232 38.9918 118.314 38.5812 118.476 38.1995C118.631 37.8328 118.856 37.4995 119.138 37.2175C119.419 36.9333 119.751 36.7038 120.117 36.5405C120.496 36.3791 120.904 36.297 121.316 36.2994H129.746C130.161 36.2976 130.572 36.3796 130.954 36.5405C131.692 36.8642 132.282 37.454 132.605 38.1925C132.767 38.5743 132.849 38.9849 132.846 39.3994L132.85 47.9852ZM130.373 40.9134V39.4063C130.374 39.3241 130.36 39.2424 130.329 39.166C130.298 39.0897 130.252 39.0204 130.194 38.9622C130.136 38.9041 130.067 38.8583 129.99 38.8276C129.914 38.7969 129.832 38.782 129.75 38.7838H121.319C121.239 38.7825 121.16 38.7977 121.087 38.8284C121.013 38.8591 120.946 38.9047 120.891 38.9623C120.833 39.0207 120.788 39.0901 120.757 39.1663C120.726 39.2425 120.711 39.3241 120.711 39.4063V40.9134H130.373Z" fill="#231F20" stroke="#231F20" stroke-width="0.25" stroke-miterlimit="10"/>
<path d="M153.25 47.9848H147.905L135.984 41.6759V40.9119H147.349C147.426 40.9122 147.502 40.8972 147.573 40.868C147.644 40.8387 147.708 40.7957 147.762 40.7415C147.82 40.6878 147.866 40.6226 147.897 40.5501C147.928 40.4776 147.943 40.3994 147.942 40.3206V39.37C147.943 39.2912 147.928 39.213 147.897 39.1405C147.866 39.068 147.82 39.0028 147.762 38.9492C147.708 38.8949 147.644 38.8519 147.573 38.8226C147.502 38.7934 147.426 38.7785 147.349 38.7787H135.984V36.3013H147.349C147.759 36.2994 148.165 36.3814 148.541 36.5424C149.274 36.8609 149.859 37.4455 150.178 38.1782C150.339 38.5547 150.421 38.9604 150.419 39.37V40.3206C150.422 40.7277 150.34 41.1308 150.178 41.5043C150.021 41.8707 149.797 42.204 149.515 42.4862C149.235 42.7658 148.905 42.9904 148.541 43.1482C148.165 43.3097 147.759 43.3918 147.349 43.3893H144.399L153.25 47.9848Z" fill="#231F20"/>
<path d="M158.259 47.9998H155.781V36.3013H158.259V47.9998ZM169.836 47.9848H167.359V43.9805C167.361 43.9019 167.345 43.8238 167.314 43.7515C167.283 43.6791 167.238 43.6142 167.18 43.5609C167.126 43.5064 167.061 43.4631 166.99 43.4337C166.92 43.4042 166.844 43.3891 166.767 43.3893H158.29L165.115 36.3013H168.543L164.102 40.9118H166.769C167.179 40.9097 167.585 40.9922 167.961 41.1541C168.694 41.4717 169.279 42.0561 169.598 42.7888C169.759 43.1653 169.841 43.5709 169.839 43.9805L169.836 47.9848Z" fill="#231F20"/>
<path d="M187.133 38.7787H172.969V36.3013H187.133V38.7787ZM187.133 47.9848H172.969V40.913H187.133V43.3904H175.446V45.5247H187.133V47.9848Z" fill="#231F20"/>
<path d="M204.866 38.7787H190.266V36.3013H204.866V38.7787ZM198.805 47.9848H196.327V40.913H198.805V47.9848Z" fill="#231F20"/>
<path d="M54.7151 21.8694L54.7058 16.4844L33.1916 16.5366L33.2241 29.9846L54.7383 29.9324L54.7244 24.5532L38.5957 24.5857L38.5887 21.9088L54.7151 21.8694ZM33.1719 8.47014L33.1858 13.8493L54.6989 13.7972L54.6861 8.41797L33.1719 8.47014Z" fill="#010101"/>
<path d="M74.5853 8.36895L74.619 21.8169L63.8247 8.39562L58.4531 8.40837L58.5053 29.9159L63.8769 29.9031L63.8444 16.4551L74.6387 29.8718L80.0277 29.8591L79.9755 8.35156L74.5853 8.36895Z" fill="#010101"/>
<path d="M99.8041 8.30847L99.8377 21.7564L89.0528 8.3305L83.6719 8.34441L83.7241 29.8507L89.1049 29.838L89.0713 16.39L99.8563 29.8067L105.245 29.7939L105.193 8.2876L99.8041 8.30847Z" fill="#010101"/>
<path d="M130.451 21.6858L130.439 16.2985L108.934 16.3507L108.966 29.7929L130.471 29.7407L130.458 24.3615L114.325 24.4009V21.7253L130.451 21.6858ZM108.914 8.28655L108.928 13.6646L130.432 13.6124L130.419 8.23438L108.914 8.28655Z" fill="#010101"/>
<path d="M155.729 16.2724L155.716 10.8318C155.717 10.482 155.648 10.1356 155.514 9.81257C155.381 9.48949 155.184 9.19616 154.936 8.94951C154.688 8.70287 154.393 8.50781 154.07 8.3756C153.746 8.2434 153.399 8.17667 153.049 8.17927L134.203 8.22565L134.217 13.6048L141.235 13.5875V13.5956L149.381 13.5759C149.51 13.5744 149.637 13.5985 149.757 13.6467C149.876 13.6948 149.985 13.7661 150.077 13.8564C150.168 13.9457 150.24 14.0525 150.289 14.1705C150.337 14.2885 150.361 14.4151 150.36 14.5427V15.2824C150.362 15.4098 150.338 15.5364 150.29 15.6545C150.242 15.7725 150.17 15.8794 150.079 15.9687C149.988 16.0597 149.879 16.1317 149.76 16.1805C149.64 16.2292 149.512 16.2538 149.383 16.2527L139.616 16.2759V16.2411L134.218 16.2539L134.252 29.7494L153.208 29.7007C153.546 29.7045 153.881 29.6389 154.193 29.5079C154.505 29.3769 154.787 29.1833 155.02 28.939C155.259 28.7014 155.447 28.4181 155.573 28.1062C155.699 27.7942 155.762 27.46 155.756 27.1235L155.742 21.4893C155.746 21.1528 155.683 20.8188 155.555 20.5075C155.427 20.1961 155.238 19.9137 154.998 19.6773C154.77 19.441 154.495 19.2533 154.192 19.1254C153.889 18.9976 153.563 18.9321 153.235 18.933C153.916 18.893 154.555 18.592 155.02 18.0925C155.252 17.8506 155.434 17.5653 155.556 17.253C155.677 16.9406 155.736 16.6075 155.729 16.2724ZM150.378 23.1958C150.383 23.3433 150.357 23.4903 150.302 23.627C150.246 23.7637 150.162 23.887 150.055 23.9888C149.952 24.0947 149.829 24.1785 149.693 24.235C149.556 24.2914 149.41 24.3193 149.263 24.3169L139.637 24.34L139.632 21.6644L149.257 21.64C149.404 21.6389 149.55 21.667 149.686 21.7227C149.822 21.7784 149.946 21.8606 150.05 21.9644C150.154 22.0682 150.237 22.1917 150.293 22.3276C150.349 22.4636 150.378 22.6093 150.377 22.7564L150.378 23.1958Z" fill="#010101"/>
<path d="M205.954 8.05176L189.548 8.09117C188.644 8.08062 187.754 8.32143 186.978 8.78676C186.215 9.23702 185.58 9.87572 185.134 10.6417C184.675 11.4203 184.44 12.3104 184.454 13.2142L184.462 16.7083C184.455 17.5646 184.682 18.4064 185.119 19.1429C185.545 19.8637 186.146 20.4652 186.867 20.8911C187.606 21.3217 188.447 21.5448 189.302 21.5368L199.275 21.5125C199.45 21.5108 199.624 21.5439 199.786 21.61C199.948 21.6761 200.095 21.7738 200.218 21.8974C200.346 22.0201 200.447 22.1676 200.516 22.3309C200.585 22.4942 200.619 22.6698 200.617 22.8468C200.618 23.0226 200.583 23.1968 200.517 23.3594C200.45 23.5219 200.351 23.6697 200.227 23.7943C200.103 23.9188 199.956 24.0177 199.793 24.0853C199.631 24.1529 199.457 24.1879 199.281 24.1882L184.487 24.2241L184.5 29.6033L200.766 29.5639C201.691 29.5696 202.6 29.324 203.397 28.8532C204.18 28.3917 204.833 27.7386 205.294 26.9554C205.769 26.1534 206.013 25.236 206 24.3041L205.993 21.3282C206 20.4059 205.755 19.4994 205.283 18.707C204.818 17.9287 204.164 17.2812 203.381 16.8254C202.587 16.3608 201.683 16.1204 200.763 16.1298L191.121 16.153C190.783 16.1491 190.46 16.0126 190.221 15.7731C189.982 15.5335 189.847 15.21 189.845 14.872V14.7213C189.844 14.3925 189.972 14.0766 190.203 13.8423C190.434 13.608 190.748 13.4743 191.077 13.4704L205.968 13.4344V11.4543L193.914 10.9199L205.96 10.3275L205.954 8.05176Z" fill="#010101"/>
<path d="M174.541 7.13786C172.141 9.53647 169.423 8.76669 168.92 8.26239C168.417 7.75809 167.716 4.96879 170.044 2.64322C172.371 0.317649 177.184 0 177.184 0C177.184 0 176.94 4.74041 174.541 7.13786Z" fill="#F36B21"/>
<path d="M181.533 13.0151C180.647 11.2495 179.251 10.1168 177.789 9.61716C175.488 8.82767 172.593 9.3737 170.269 11.1243C167.95 9.37602 165.051 8.82999 162.749 9.61716C161.286 10.1191 159.89 11.2495 159.004 13.0151C157.478 16.0513 157.686 20.5007 159.089 23.5428C161.598 28.9811 166.263 31.9281 170.269 29.3324C174.275 31.9281 178.939 28.9846 181.449 23.5428C182.853 20.5007 183.059 16.0513 181.533 13.0151ZM165.276 26.7622C165.201 26.8393 165.112 26.901 165.014 26.9436C164.916 26.9861 164.81 27.0089 164.703 27.0104C164.596 27.0119 164.489 26.9922 164.39 26.9523C164.29 26.9125 164.2 26.8534 164.123 26.7784C162.003 24.716 160.63 22.176 160.257 19.6243C159.826 16.6878 160.775 13.691 162.73 11.8036C162.807 11.7292 162.898 11.6708 162.998 11.6315C163.098 11.5923 163.204 11.5731 163.311 11.575C163.418 11.5769 163.524 11.5998 163.622 11.6425C163.72 11.6852 163.809 11.7469 163.884 11.8239C163.958 11.9009 164.016 11.9919 164.056 12.0915C164.095 12.1911 164.114 12.2975 164.112 12.4046C164.11 12.5116 164.087 12.6173 164.045 12.7155C164.002 12.8136 163.94 12.9025 163.863 12.9768C162.278 14.5048 161.515 16.9614 161.87 19.389C162.191 21.5917 163.395 23.7943 165.259 25.6098C165.337 25.6842 165.398 25.7731 165.441 25.8714C165.484 25.9697 165.506 26.0755 165.508 26.1826C165.509 26.2897 165.49 26.3961 165.45 26.4956C165.41 26.5951 165.351 26.6857 165.276 26.7622Z" fill="url(#paint2_linear_3508_16354)"/>
<path d="M21.3532 36.6626C22.5579 36.6626 23.5346 35.6863 23.5346 34.4819C23.5346 33.2776 22.5579 32.3013 21.3532 32.3013C20.1485 32.3013 19.1719 33.2776 19.1719 34.4819C19.1719 35.6863 20.1485 36.6626 21.3532 36.6626Z" fill="url(#paint3_linear_3508_16354)"/>
<path d="M13.2907 36.6626C14.4954 36.6626 15.4721 35.6863 15.4721 34.4819C15.4721 33.2776 14.4954 32.3013 13.2907 32.3013C12.086 32.3013 11.1094 33.2776 11.1094 34.4819C11.1094 35.6863 12.086 36.6626 13.2907 36.6626Z" fill="url(#paint4_linear_3508_16354)"/>
<path style="mix-blend-mode:screen" d="M171.86 27.2619C172.072 27.2289 171.721 23.845 171.076 19.7037C170.431 15.5624 169.736 12.232 169.524 12.265C169.312 12.298 169.664 15.6819 170.309 19.8232C170.954 23.9645 171.648 27.2949 171.86 27.2619Z" fill="url(#paint5_radial_3508_16354)"/>
<path style="mix-blend-mode:screen" d="M171.579 25.2623C171.744 25.2363 171.466 22.6124 170.959 19.4015C170.452 16.1906 169.908 13.6087 169.743 13.6346C169.579 13.6606 169.856 16.2846 170.363 19.4955C170.87 22.7064 171.415 25.2883 171.579 25.2623Z" fill="url(#paint6_radial_3508_16354)"/>
<path style="mix-blend-mode:screen" d="M171.419 24.2703C171.555 24.2487 171.325 22.0723 170.905 19.4091C170.484 16.7459 170.033 14.6044 169.896 14.626C169.759 14.6476 169.989 16.824 170.41 19.4872C170.83 22.1504 171.282 24.2918 171.419 24.2703Z" fill="url(#paint7_radial_3508_16354)"/>
<path style="mix-blend-mode:screen" d="M170.754 20.1869C174.717 19.5714 177.902 18.8925 177.867 18.6704C177.833 18.4484 174.592 18.7672 170.629 19.3827C166.666 19.9981 163.481 20.6771 163.516 20.8992C163.55 21.1212 166.791 20.8023 170.754 20.1869Z" fill="url(#paint8_radial_3508_16354)"/>
<path style="mix-blend-mode:screen" d="M171.06 20.0341C174.133 19.5492 176.602 19.0167 176.575 18.8447C176.548 18.6726 174.035 18.9263 170.962 19.4111C167.889 19.896 165.42 20.4285 165.448 20.6005C165.475 20.7726 167.988 20.519 171.06 20.0341Z" fill="url(#paint9_radial_3508_16354)"/>
<path style="mix-blend-mode:screen" d="M171.047 19.9819C173.596 19.5798 175.643 19.1379 175.62 18.995C175.598 18.8521 173.514 19.0622 170.966 19.4643C168.417 19.8664 166.37 20.3083 166.392 20.4512C166.415 20.5941 168.499 20.384 171.047 19.9819Z" fill="url(#paint10_radial_3508_16354)"/>
<path style="mix-blend-mode:screen" d="M170.928 19.9304C172.596 17.5395 173.843 15.5289 173.715 15.4395C173.587 15.3502 172.131 17.216 170.464 19.6069C168.797 21.9978 167.549 24.0085 167.677 24.0978C167.806 24.1871 169.261 22.3214 170.928 19.9304Z" fill="url(#paint11_radial_3508_16354)"/>
<path style="mix-blend-mode:screen" d="M171.023 19.732C172.312 17.8747 173.277 16.3131 173.177 16.2441C173.078 16.1751 171.952 17.6249 170.663 19.4822C169.373 21.3395 168.409 22.9011 168.508 22.9701C168.608 23.0391 169.733 21.5894 171.023 19.732Z" fill="url(#paint12_radial_3508_16354)"/>
<path style="mix-blend-mode:screen" d="M170.993 19.7108C172.062 18.1707 172.862 16.8757 172.779 16.8184C172.697 16.761 171.763 17.9631 170.694 19.5033C169.625 21.0435 168.825 22.3385 168.907 22.3958C168.99 22.4531 169.924 21.251 170.993 19.7108Z" fill="url(#paint13_radial_3508_16354)"/>
<path style="mix-blend-mode:screen" d="M174.892 22.99C174.987 22.866 173.188 21.3287 170.872 19.5565C168.557 17.7843 166.603 16.4482 166.508 16.5723C166.413 16.6963 168.213 18.2335 170.528 20.0057C172.844 21.7779 174.797 23.114 174.892 22.99Z" fill="url(#paint14_radial_3508_16354)"/>
<path style="mix-blend-mode:screen" d="M174.131 22.3955C174.204 22.2993 172.806 21.1104 171.007 19.7401C169.208 18.3697 167.691 17.3369 167.617 17.4331C167.544 17.5294 168.943 18.7183 170.741 20.0886C172.54 21.4589 174.058 22.4918 174.131 22.3955Z" fill="url(#paint15_radial_3508_16354)"/>
<path style="mix-blend-mode:screen" d="M173.576 21.9735C173.637 21.8936 172.477 20.9073 170.985 19.7706C169.493 18.6339 168.234 17.7772 168.173 17.8572C168.112 17.9371 169.272 18.9234 170.764 20.0601C172.256 21.1968 173.515 22.0535 173.576 21.9735Z" fill="url(#paint16_radial_3508_16354)"/>
<path style="mix-blend-mode:screen" d="M173.968 21.1293C174.678 19.1464 173.721 16.9915 171.833 16.3162C169.944 15.6409 167.838 16.7008 167.128 18.6837C166.419 20.6665 167.375 22.8214 169.264 23.4967C171.152 24.172 173.259 23.1121 173.968 21.1293Z" fill="url(#paint17_radial_3508_16354)"/>
<path style="mix-blend-mode:screen" d="M171.696 22.18C173.255 21.9282 174.308 20.4271 174.05 18.8273C173.791 17.2274 172.318 16.1345 170.759 16.3864C169.201 16.6382 168.147 18.1392 168.406 19.7391C168.664 21.339 170.138 22.4318 171.696 22.18Z" fill="url(#paint18_radial_3508_16354)"/>
<path style="mix-blend-mode:screen" d="M170.969 22.1447C172.259 21.9403 173.134 20.7017 172.924 19.3782C172.714 18.0546 171.498 17.1473 170.209 17.3517C168.92 17.556 168.045 18.7946 168.255 20.1182C168.465 21.4417 169.68 22.349 170.969 22.1447Z" fill="url(#paint19_radial_3508_16354)"/>
<defs>
<linearGradient id="paint0_linear_3508_16354" x1="-0.00231934" y1="19.1687" x2="28.4178" y2="19.1687" gradientUnits="userSpaceOnUse">
<stop stop-color="#7ABD43"/>
<stop offset="0.16" stop-color="#51A742"/>
<stop offset="0.32" stop-color="#2E9342"/>
<stop offset="0.45" stop-color="#198741"/>
<stop offset="0.53" stop-color="#118341"/>
<stop offset="1" stop-color="#7ABD43"/>
</linearGradient>
<linearGradient id="paint1_linear_3508_16354" x1="100.484" y1="42.1431" x2="115.1" y2="42.1431" gradientUnits="userSpaceOnUse">
<stop stop-color="#7ABD43"/>
<stop offset="0.03" stop-color="#6CB543"/>
<stop offset="0.13" stop-color="#4BA342"/>
<stop offset="0.22" stop-color="#329542"/>
<stop offset="0.32" stop-color="#1F8B41"/>
<stop offset="0.42" stop-color="#158541"/>
<stop offset="0.53" stop-color="#118341"/>
<stop offset="0.64" stop-color="#148541"/>
<stop offset="0.73" stop-color="#1F8B41"/>
<stop offset="0.81" stop-color="#309442"/>
<stop offset="0.89" stop-color="#49A242"/>
<stop offset="0.96" stop-color="#68B343"/>
<stop offset="1" stop-color="#7ABD43"/>
</linearGradient>
<linearGradient id="paint2_linear_3508_16354" x1="157.945" y1="19.775" x2="182.592" y2="19.775" gradientUnits="userSpaceOnUse">
<stop stop-color="#7ABD43"/>
<stop offset="0.16" stop-color="#51A742"/>
<stop offset="0.32" stop-color="#2E9342"/>
<stop offset="0.45" stop-color="#198741"/>
<stop offset="0.53" stop-color="#118341"/>
<stop offset="1" stop-color="#7ABD43"/>
</linearGradient>
<linearGradient id="paint3_linear_3508_16354" x1="19.1719" y1="34.4819" x2="23.5346" y2="34.4819" gradientUnits="userSpaceOnUse">
<stop stop-color="#7ABD43"/>
<stop offset="0.16" stop-color="#51A742"/>
<stop offset="0.32" stop-color="#2E9342"/>
<stop offset="0.45" stop-color="#198741"/>
<stop offset="0.53" stop-color="#118341"/>
<stop offset="1" stop-color="#7ABD43"/>
</linearGradient>
<linearGradient id="paint4_linear_3508_16354" x1="11.1094" y1="34.4819" x2="15.4721" y2="34.4819" gradientUnits="userSpaceOnUse">
<stop stop-color="#7ABD43"/>
<stop offset="0.16" stop-color="#51A742"/>
<stop offset="0.32" stop-color="#2E9342"/>
<stop offset="0.45" stop-color="#198741"/>
<stop offset="0.53" stop-color="#118341"/>
<stop offset="1" stop-color="#7ABD43"/>
</linearGradient>
<radialGradient id="paint5_radial_3508_16354" cx="0" cy="0" r="1" gradientUnits="userSpaceOnUse" gradientTransform="translate(165.155 34.5572) rotate(-29.3982) scale(0.406607 7.08379)">
<stop stop-color="#84C441"/>
<stop offset="0.21" stop-color="#629130"/>
<stop offset="0.48" stop-color="#39541C"/>
<stop offset="0.72" stop-color="#1A270D"/>
<stop offset="0.9" stop-color="#080B04"/>
<stop offset="1" stop-color="#010101"/>
</radialGradient>
<radialGradient id="paint6_radial_3508_16354" cx="0" cy="0" r="1" gradientUnits="userSpaceOnUse" gradientTransform="translate(187.695 16.6428) rotate(-8.96723) scale(0.315827 5.8936)">
<stop stop-color="#3DB54A"/>
<stop offset="0.16" stop-color="#31913B"/>
<stop offset="0.45" stop-color="#1D5423"/>
<stop offset="0.7" stop-color="#0E2710"/>
<stop offset="0.89" stop-color="#040B05"/>
<stop offset="1" stop-color="#010101"/>
</radialGradient>
<radialGradient id="paint7_radial_3508_16354" cx="0" cy="0" r="1" gradientUnits="userSpaceOnUse" gradientTransform="translate(187.691 16.6425) rotate(-8.96723) scale(0.261965 4.88861)">
<stop stop-color="#7AC143"/>
<stop offset="0.2" stop-color="#5C9133"/>
<stop offset="0.48" stop-color="#35541D"/>
<stop offset="0.71" stop-color="#19270E"/>
<stop offset="0.89" stop-color="#070B05"/>
<stop offset="1" stop-color="#010101"/>
</radialGradient>
<radialGradient id="paint8_radial_3508_16354" cx="0" cy="0" r="1" gradientUnits="userSpaceOnUse" gradientTransform="translate(170.984 25.812) rotate(62.7278) scale(0.451396 6.9076)">
<stop stop-color="#84C441"/>
<stop offset="0.21" stop-color="#629130"/>
<stop offset="0.48" stop-color="#39541C"/>
<stop offset="0.72" stop-color="#1A270D"/>
<stop offset="0.9" stop-color="#080B04"/>
<stop offset="1" stop-color="#010101"/>
</radialGradient>
<radialGradient id="paint9_radial_3508_16354" cx="0" cy="0" r="1" gradientUnits="userSpaceOnUse" gradientTransform="translate(169.569 20.0611) rotate(81.0272) scale(0.315729 5.61463)">
<stop stop-color="#3DB54A"/>
<stop offset="0.16" stop-color="#31913B"/>
<stop offset="0.45" stop-color="#1D5423"/>
<stop offset="0.7" stop-color="#0E2710"/>
<stop offset="0.89" stop-color="#040B05"/>
<stop offset="1" stop-color="#010101"/>
</radialGradient>
<radialGradient id="paint10_radial_3508_16354" cx="0" cy="0" r="1" gradientUnits="userSpaceOnUse" gradientTransform="translate(169.564 20.0616) rotate(81.0272) scale(0.261891 4.6572)">
<stop stop-color="#7AC143"/>
<stop offset="0.2" stop-color="#5C9133"/>
<stop offset="0.48" stop-color="#35541D"/>
<stop offset="0.71" stop-color="#19270E"/>
<stop offset="0.89" stop-color="#070B05"/>
<stop offset="1" stop-color="#010101"/>
</radialGradient>
<radialGradient id="paint11_radial_3508_16354" cx="0" cy="0" r="1" gradientUnits="userSpaceOnUse" gradientTransform="translate(162.476 7.72175) rotate(14.3197) scale(0.289018 4.93965)">
<stop stop-color="#84C441"/>
<stop offset="0.21" stop-color="#629130"/>
<stop offset="0.48" stop-color="#39541C"/>
<stop offset="0.72" stop-color="#1A270D"/>
<stop offset="0.9" stop-color="#080B04"/>
<stop offset="1" stop-color="#010101"/>
</radialGradient>
<radialGradient id="paint12_radial_3508_16354" cx="0" cy="0" r="1" gradientUnits="userSpaceOnUse" gradientTransform="translate(185.611 12.2418) rotate(34.7516) scale(0.224476 4.09004)">
<stop stop-color="#3DB54A"/>
<stop offset="0.16" stop-color="#31913B"/>
<stop offset="0.45" stop-color="#1D5423"/>
<stop offset="0.7" stop-color="#0E2710"/>
<stop offset="0.89" stop-color="#040B05"/>
<stop offset="1" stop-color="#010101"/>
</radialGradient>
<radialGradient id="paint13_radial_3508_16354" cx="0" cy="0" r="1" gradientUnits="userSpaceOnUse" gradientTransform="translate(185.611 12.2418) rotate(34.7516) scale(0.186179 3.3922)">
<stop stop-color="#7AC143"/>
<stop offset="0.2" stop-color="#5C9133"/>
<stop offset="0.48" stop-color="#35541D"/>
<stop offset="0.71" stop-color="#19270E"/>
<stop offset="0.89" stop-color="#070B05"/>
<stop offset="1" stop-color="#010101"/>
</radialGradient>
<radialGradient id="paint14_radial_3508_16354" cx="0" cy="0" r="1" gradientUnits="userSpaceOnUse" gradientTransform="translate(158.797 21.0181) rotate(100.878) scale(0.302472 4.71994)">
<stop stop-color="#84C441"/>
<stop offset="0.21" stop-color="#629130"/>
<stop offset="0.48" stop-color="#39541C"/>
<stop offset="0.72" stop-color="#1A270D"/>
<stop offset="0.9" stop-color="#080B04"/>
<stop offset="1" stop-color="#010101"/>
</radialGradient>
<radialGradient id="paint15_radial_3508_16354" cx="0" cy="0" r="1" gradientUnits="userSpaceOnUse" gradientTransform="translate(179.498 21.1078) rotate(127.319) scale(0.224458 4.09043)">
<stop stop-color="#3DB54A"/>
<stop offset="0.16" stop-color="#31913B"/>
<stop offset="0.45" stop-color="#1D5423"/>
<stop offset="0.7" stop-color="#0E2710"/>
<stop offset="0.89" stop-color="#040B05"/>
<stop offset="1" stop-color="#010101"/>
</radialGradient>
<radialGradient id="paint16_radial_3508_16354" cx="0" cy="0" r="1" gradientUnits="userSpaceOnUse" gradientTransform="translate(179.498 21.1088) rotate(127.319) scale(0.186161 3.39253)">
<stop stop-color="#7AC143"/>
<stop offset="0.2" stop-color="#5C9133"/>
<stop offset="0.48" stop-color="#35541D"/>
<stop offset="0.71" stop-color="#19270E"/>
<stop offset="0.89" stop-color="#070B05"/>
<stop offset="1" stop-color="#010101"/>
</radialGradient>
<radialGradient id="paint17_radial_3508_16354" cx="0" cy="0" r="1" gradientUnits="userSpaceOnUse" gradientTransform="translate(172.513 20.4869) rotate(-10.0618) scale(3.69052 3.77052)">
<stop stop-color="#84C441"/>
<stop offset="0.21" stop-color="#629130"/>
<stop offset="0.48" stop-color="#39541C"/>
<stop offset="0.72" stop-color="#1A270D"/>
<stop offset="0.9" stop-color="#080B04"/>
<stop offset="1" stop-color="#010101"/>
</radialGradient>
<radialGradient id="paint18_radial_3508_16354" cx="0" cy="0" r="1" gradientUnits="userSpaceOnUse" gradientTransform="translate(170.354 18.8995) rotate(-9.17771) scale(2.85369 2.94955)">
<stop stop-color="#3DB54A"/>
<stop offset="0.16" stop-color="#31913B"/>
<stop offset="0.45" stop-color="#1D5423"/>
<stop offset="0.7" stop-color="#0E2710"/>
<stop offset="0.89" stop-color="#040B05"/>
<stop offset="1" stop-color="#010101"/>
</radialGradient>
<radialGradient id="paint19_radial_3508_16354" cx="0" cy="0" r="1" gradientUnits="userSpaceOnUse" gradientTransform="translate(169.719 19.3629) rotate(-9.00722) scale(2.35981 2.43908)">
<stop stop-color="#7AC143"/>
<stop offset="0.2" stop-color="#5C9133"/>
<stop offset="0.48" stop-color="#35541D"/>
<stop offset="0.71" stop-color="#19270E"/>
<stop offset="0.89" stop-color="#070B05"/>
<stop offset="1" stop-color="#010101"/>
</radialGradient>
</defs>
</svg>
